<?xml version="1.0" encoding="UTF-8" standalone="no"?>
<!DOCTYPE svg PUBLIC "-//W3C//DTD SVG 1.1//EN"
 "http://www.w3.org/Graphics/SVG/1.1/DTD/svg11.dtd">
<!-- Generated by graphviz version 5.0.0 (20220707.1540)
 -->
<!-- Title: dependencies Pages: 1 -->
<svg width="458pt" height="174pt"
 viewBox="0.00 0.00 458.00 173.80" xmlns="http://www.w3.org/2000/svg" xmlns:xlink="http://www.w3.org/1999/xlink">
<g id="graph0" class="graph" transform="scale(1 1) rotate(0) translate(4 169.8)">
<title>dependencies</title>
<polygon fill="white" stroke="transparent" points="-4,4 -4,-169.8 454,-169.8 454,4 -4,4"/>
<text text-anchor="middle" x="225" y="-8.2" font-family="sans-serif" font-size="14.00">dependencies</text>
<g id="clust1" class="cluster">
<title>cluster_DeaModule</title>
<polygon fill="none" stroke="black" stroke-dasharray="1,5" points="8,-32.8 8,-157.8 442,-157.8 442,-32.8 8,-32.8"/>
</g>
<g id="clust2" class="cluster">
<title>cluster_DeaModule_declarations</title>
<polygon fill="none" stroke="black" points="152,-40.8 152,-92.8 434,-92.8 434,-40.8 152,-40.8"/>
</g>
<g id="clust8" class="cluster">
<title>cluster_DeaModule_providers</title>
<polygon fill="none" stroke="black" points="16,-40.8 16,-92.8 144,-92.8 144,-40.8 16,-40.8"/>
</g>
<!-- CytoGraphComponent -->
<g id="node1" class="node">
<title>CytoGraphComponent</title>
<polygon fill="#ffffb3" stroke="black" points="425.55,-84.8 282.45,-84.8 282.45,-48.8 425.55,-48.8 425.55,-84.8"/>
<text text-anchor="middle" x="354" y="-62.6" font-family="Times,serif" font-size="14.00">CytoGraphComponent</text>
</g>
<!-- DeaModule -->
<g id="node3" class="node">
<title>DeaModule</title>
<polygon fill="#8dd3c7" stroke="black" points="253.09,-149.8 250.09,-153.8 229.09,-153.8 226.09,-149.8 170.91,-149.8 170.91,-113.8 253.09,-113.8 253.09,-149.8"/>
<text text-anchor="middle" x="212" y="-127.6" font-family="Times,serif" font-size="14.00">DeaModule</text>
</g>
<!-- CytoGraphComponent&#45;&gt;DeaModule -->
<g id="edge1" class="edge">
<title>CytoGraphComponent&#45;&gt;DeaModule</title>
<path fill="none" stroke="black" d="M354,-84.91C354,-104.14 354,-131.8 354,-131.8 354,-131.8 263.07,-131.8 263.07,-131.8"/>
<polygon fill="black" stroke="black" points="263.07,-128.3 253.07,-131.8 263.07,-135.3 263.07,-128.3"/>
</g>
<!-- DeaComponent -->
<g id="node2" class="node">
<title>DeaComponent</title>
<polygon fill="#ffffb3" stroke="black" points="263.87,-84.8 160.13,-84.8 160.13,-48.8 263.87,-48.8 263.87,-84.8"/>
<text text-anchor="middle" x="212" y="-62.6" font-family="Times,serif" font-size="14.00">DeaComponent</text>
</g>
<!-- DeaComponent&#45;&gt;DeaModule -->
<g id="edge2" class="edge">
<title>DeaComponent&#45;&gt;DeaModule</title>
<path fill="none" stroke="black" d="M212,-84.91C212,-84.91 212,-103.79 212,-103.79"/>
<polygon fill="black" stroke="black" points="208.5,-103.79 212,-113.79 215.5,-103.79 208.5,-103.79"/>
</g>
<!-- DeaService -->
<g id="node4" class="node">
<title>DeaService</title>
<ellipse fill="#fdb462" stroke="black" cx="80" cy="-66.8" rx="55.58" ry="18"/>
<text text-anchor="middle" x="80" y="-62.6" font-family="Times,serif" font-size="14.00">DeaService</text>
</g>
<!-- DeaService&#45;&gt;DeaModule -->
<g id="edge3" class="edge">
<title>DeaService&#45;&gt;DeaModule</title>
<path fill="none" stroke="black" d="M80,-84.91C80,-104.14 80,-131.8 80,-131.8 80,-131.8 160.6,-131.8 160.6,-131.8"/>
<polygon fill="black" stroke="black" points="160.6,-135.3 170.6,-131.8 160.6,-128.3 160.6,-135.3"/>
</g>
</g>
</svg>
