<?xml version="1.0" encoding="UTF-8" standalone="no"?>
<!DOCTYPE svg PUBLIC "-//W3C//DTD SVG 1.1//EN"
 "http://www.w3.org/Graphics/SVG/1.1/DTD/svg11.dtd">
<!-- Generated by graphviz version 5.0.0 (20220707.1540)
 -->
<!-- Title: dependencies Pages: 1 -->
<svg width="477pt" height="174pt"
 viewBox="0.00 0.00 477.00 173.80" xmlns="http://www.w3.org/2000/svg" xmlns:xlink="http://www.w3.org/1999/xlink">
<g id="graph0" class="graph" transform="scale(1 1) rotate(0) translate(4 169.8)">
<title>dependencies</title>
<polygon fill="white" stroke="transparent" points="-4,4 -4,-169.8 473,-169.8 473,4 -4,4"/>
<text text-anchor="middle" x="234.5" y="-8.2" font-family="sans-serif" font-size="14.00">dependencies</text>
<g id="clust1" class="cluster">
<title>cluster_StartGameModule</title>
<polygon fill="none" stroke="black" stroke-dasharray="1,5" points="8,-32.8 8,-157.8 461,-157.8 461,-32.8 8,-32.8"/>
</g>
<g id="clust8" class="cluster">
<title>cluster_StartGameModule_providers</title>
<polygon fill="none" stroke="black" points="313,-40.8 313,-92.8 453,-92.8 453,-40.8 313,-40.8"/>
</g>
<g id="clust2" class="cluster">
<title>cluster_StartGameModule_declarations</title>
<polygon fill="none" stroke="black" points="16,-40.8 16,-92.8 305,-92.8 305,-40.8 16,-40.8"/>
</g>
<!-- StartGameComponent -->
<g id="node1" class="node">
<title>StartGameComponent</title>
<polygon fill="#ffffb3" stroke="black" points="296.7,-84.8 155.3,-84.8 155.3,-48.8 296.7,-48.8 296.7,-84.8"/>
<text text-anchor="middle" x="226" y="-62.6" font-family="Times,serif" font-size="14.00">StartGameComponent</text>
</g>
<!-- StartGameModule -->
<g id="node3" class="node">
<title>StartGameModule</title>
<polygon fill="#8dd3c7" stroke="black" points="285.92,-149.8 282.92,-153.8 261.92,-153.8 258.92,-149.8 166.08,-149.8 166.08,-113.8 285.92,-113.8 285.92,-149.8"/>
<text text-anchor="middle" x="226" y="-127.6" font-family="Times,serif" font-size="14.00">StartGameModule</text>
</g>
<!-- StartGameComponent&#45;&gt;StartGameModule -->
<g id="edge1" class="edge">
<title>StartGameComponent&#45;&gt;StartGameModule</title>
<path fill="none" stroke="black" d="M226,-84.91C226,-84.91 226,-103.79 226,-103.79"/>
<polygon fill="black" stroke="black" points="222.5,-103.79 226,-113.79 229.5,-103.79 222.5,-103.79"/>
</g>
<!-- TableComponent -->
<g id="node2" class="node">
<title>TableComponent</title>
<polygon fill="#ffffb3" stroke="black" points="137.7,-84.8 24.3,-84.8 24.3,-48.8 137.7,-48.8 137.7,-84.8"/>
<text text-anchor="middle" x="81" y="-62.6" font-family="Times,serif" font-size="14.00">TableComponent</text>
</g>
<!-- TableComponent&#45;&gt;StartGameModule -->
<g id="edge2" class="edge">
<title>TableComponent&#45;&gt;StartGameModule</title>
<path fill="none" stroke="black" d="M81,-84.91C81,-104.14 81,-131.8 81,-131.8 81,-131.8 156.19,-131.8 156.19,-131.8"/>
<polygon fill="black" stroke="black" points="156.19,-135.3 166.19,-131.8 156.19,-128.3 156.19,-135.3"/>
</g>
<!-- UsersService -->
<g id="node4" class="node">
<title>UsersService</title>
<ellipse fill="#fdb462" stroke="black" cx="383" cy="-66.8" rx="61.97" ry="18"/>
<text text-anchor="middle" x="383" y="-62.6" font-family="Times,serif" font-size="14.00">UsersService</text>
</g>
<!-- UsersService&#45;&gt;StartGameModule -->
<g id="edge3" class="edge">
<title>UsersService&#45;&gt;StartGameModule</title>
<path fill="none" stroke="black" d="M383,-84.91C383,-104.14 383,-131.8 383,-131.8 383,-131.8 295.8,-131.8 295.8,-131.8"/>
<polygon fill="black" stroke="black" points="295.8,-128.3 285.8,-131.8 295.8,-135.3 295.8,-128.3"/>
</g>
</g>
</svg>
