<?xml version="1.0" encoding="UTF-8" standalone="no"?>
<!DOCTYPE svg PUBLIC "-//W3C//DTD SVG 1.1//EN"
 "http://www.w3.org/Graphics/SVG/1.1/DTD/svg11.dtd">
<!-- Generated by graphviz version 5.0.0 (20220707.1540)
 -->
<!-- Title: dependencies Pages: 1 -->
<svg width="1676pt" height="247pt"
 viewBox="0.00 0.00 1676.00 246.80" xmlns="http://www.w3.org/2000/svg" xmlns:xlink="http://www.w3.org/1999/xlink">
<g id="graph0" class="graph" transform="scale(1 1) rotate(0) translate(4 242.8)">
<title>dependencies</title>
<polygon fill="white" stroke="transparent" points="-4,4 -4,-242.8 1672,-242.8 1672,4 -4,4"/>
<text text-anchor="middle" x="834" y="-8.2" font-family="sans-serif" font-size="14.00">dependencies</text>
<g id="clust1" class="cluster">
<title>cluster_AppModule</title>
<polygon fill="none" stroke="black" stroke-dasharray="1,5" points="8,-32.8 8,-230.8 1660,-230.8 1660,-32.8 8,-32.8"/>
</g>
<g id="clust15" class="cluster">
<title>cluster_AppModule_bootstrap</title>
<polygon fill="none" stroke="black" points="798,-170.8 798,-222.8 922,-222.8 922,-170.8 798,-170.8"/>
</g>
<g id="clust2" class="cluster">
<title>cluster_AppModule_declarations</title>
<polygon fill="none" stroke="black" points="168,-40.8 168,-92.8 1652,-92.8 1652,-40.8 168,-40.8"/>
</g>
<g id="clust13" class="cluster">
<title>cluster_AppModule_imports</title>
<polygon fill="none" stroke="black" points="16,-40.8 16,-92.8 160,-92.8 160,-40.8 16,-40.8"/>
</g>
<!-- AppComponent -->
<g id="node1" class="node">
<title>AppComponent</title>
<polygon fill="#ffffb3" stroke="black" points="1643.94,-84.8 1538.06,-84.8 1538.06,-48.8 1643.94,-48.8 1643.94,-84.8"/>
<text text-anchor="middle" x="1591" y="-62.6" font-family="Times,serif" font-size="14.00">AppComponent</text>
</g>
<!-- AppModule -->
<g id="node11" class="node">
<title>AppModule</title>
<polygon fill="#8dd3c7" stroke="black" points="901.66,-149.8 898.66,-153.8 877.66,-153.8 874.66,-149.8 818.34,-149.8 818.34,-113.8 901.66,-113.8 901.66,-149.8"/>
<text text-anchor="middle" x="860" y="-127.6" font-family="Times,serif" font-size="14.00">AppModule</text>
</g>
<!-- AppComponent&#45;&gt;AppModule -->
<g id="edge1" class="edge">
<title>AppComponent&#45;&gt;AppModule</title>
<path fill="none" stroke="black" d="M1591,-85.05C1591,-107.82 1591,-143.8 1591,-143.8 1591,-143.8 911.93,-143.8 911.93,-143.8"/>
<polygon fill="black" stroke="black" points="911.93,-140.3 901.93,-143.8 911.93,-147.3 911.93,-140.3"/>
</g>
<!-- DialogComponent -->
<g id="node2" class="node">
<title>DialogComponent</title>
<polygon fill="#ffffb3" stroke="black" points="1520.94,-84.8 1401.06,-84.8 1401.06,-48.8 1520.94,-48.8 1520.94,-84.8"/>
<text text-anchor="middle" x="1461" y="-62.6" font-family="Times,serif" font-size="14.00">DialogComponent</text>
</g>
<!-- DialogComponent&#45;&gt;AppModule -->
<g id="edge2" class="edge">
<title>DialogComponent&#45;&gt;AppModule</title>
<path fill="none" stroke="black" d="M1461,-85.08C1461,-106.12 1461,-137.8 1461,-137.8 1461,-137.8 911.78,-137.8 911.78,-137.8"/>
<polygon fill="black" stroke="black" points="911.78,-134.3 901.78,-137.8 911.78,-141.3 911.78,-134.3"/>
</g>
<!-- DialogDataExampleDialog -->
<g id="node3" class="node">
<title>DialogDataExampleDialog</title>
<polygon fill="#ffffb3" stroke="black" points="1383.39,-84.8 1214.61,-84.8 1214.61,-48.8 1383.39,-48.8 1383.39,-84.8"/>
<text text-anchor="middle" x="1299" y="-62.6" font-family="Times,serif" font-size="14.00">DialogDataExampleDialog</text>
</g>
<!-- DialogDataExampleDialog&#45;&gt;AppModule -->
<g id="edge3" class="edge">
<title>DialogDataExampleDialog&#45;&gt;AppModule</title>
<path fill="none" stroke="black" d="M1299,-84.91C1299,-104.14 1299,-131.8 1299,-131.8 1299,-131.8 911.7,-131.8 911.7,-131.8"/>
<polygon fill="black" stroke="black" points="911.7,-128.3 901.7,-131.8 911.7,-135.3 911.7,-128.3"/>
</g>
<!-- FooterComponent -->
<g id="node4" class="node">
<title>FooterComponent</title>
<polygon fill="#ffffb3" stroke="black" points="1196.88,-84.8 1079.12,-84.8 1079.12,-48.8 1196.88,-48.8 1196.88,-84.8"/>
<text text-anchor="middle" x="1138" y="-62.6" font-family="Times,serif" font-size="14.00">FooterComponent</text>
</g>
<!-- FooterComponent&#45;&gt;AppModule -->
<g id="edge4" class="edge">
<title>FooterComponent&#45;&gt;AppModule</title>
<path fill="none" stroke="black" d="M1138,-84.82C1138,-102.17 1138,-125.8 1138,-125.8 1138,-125.8 911.92,-125.8 911.92,-125.8"/>
<polygon fill="black" stroke="black" points="911.92,-122.3 901.92,-125.8 911.92,-129.3 911.92,-122.3"/>
</g>
<!-- LoginComponent -->
<g id="node5" class="node">
<title>LoginComponent</title>
<polygon fill="#ffffb3" stroke="black" points="1061.27,-84.8 946.73,-84.8 946.73,-48.8 1061.27,-48.8 1061.27,-84.8"/>
<text text-anchor="middle" x="1004" y="-62.6" font-family="Times,serif" font-size="14.00">LoginComponent</text>
</g>
<!-- LoginComponent&#45;&gt;AppModule -->
<g id="edge5" class="edge">
<title>LoginComponent&#45;&gt;AppModule</title>
<path fill="none" stroke="black" d="M1004,-85.04C1004,-100.37 1004,-119.8 1004,-119.8 1004,-119.8 912.04,-119.8 912.04,-119.8"/>
<polygon fill="black" stroke="black" points="912.04,-116.3 902.04,-119.8 912.04,-123.3 912.04,-116.3"/>
</g>
<!-- MainPageComponent -->
<g id="node6" class="node">
<title>MainPageComponent</title>
<polygon fill="#ffffb3" stroke="black" points="929.1,-84.8 790.9,-84.8 790.9,-48.8 929.1,-48.8 929.1,-84.8"/>
<text text-anchor="middle" x="860" y="-62.6" font-family="Times,serif" font-size="14.00">MainPageComponent</text>
</g>
<!-- MainPageComponent&#45;&gt;AppModule -->
<g id="edge6" class="edge">
<title>MainPageComponent&#45;&gt;AppModule</title>
<path fill="none" stroke="black" d="M860,-84.91C860,-84.91 860,-103.79 860,-103.79"/>
<polygon fill="black" stroke="black" points="856.5,-103.79 860,-113.79 863.5,-103.79 856.5,-103.79"/>
</g>
<!-- NavigationComponent -->
<g id="node7" class="node">
<title>NavigationComponent</title>
<polygon fill="#ffffb3" stroke="black" points="772.54,-84.8 629.46,-84.8 629.46,-48.8 772.54,-48.8 772.54,-84.8"/>
<text text-anchor="middle" x="701" y="-62.6" font-family="Times,serif" font-size="14.00">NavigationComponent</text>
</g>
<!-- NavigationComponent&#45;&gt;AppModule -->
<g id="edge7" class="edge">
<title>NavigationComponent&#45;&gt;AppModule</title>
<path fill="none" stroke="black" d="M701,-85.04C701,-100.37 701,-119.8 701,-119.8 701,-119.8 808.22,-119.8 808.22,-119.8"/>
<polygon fill="black" stroke="black" points="808.22,-123.3 818.22,-119.8 808.22,-116.3 808.22,-123.3"/>
</g>
<!-- ProfileComponent -->
<g id="node8" class="node">
<title>ProfileComponent</title>
<polygon fill="#ffffb3" stroke="black" points="611.94,-84.8 492.06,-84.8 492.06,-48.8 611.94,-48.8 611.94,-84.8"/>
<text text-anchor="middle" x="552" y="-62.6" font-family="Times,serif" font-size="14.00">ProfileComponent</text>
</g>
<!-- ProfileComponent&#45;&gt;AppModule -->
<g id="edge8" class="edge">
<title>ProfileComponent&#45;&gt;AppModule</title>
<path fill="none" stroke="black" d="M552,-84.82C552,-102.17 552,-125.8 552,-125.8 552,-125.8 808.14,-125.8 808.14,-125.8"/>
<polygon fill="black" stroke="black" points="808.14,-129.3 818.14,-125.8 808.14,-122.3 808.14,-129.3"/>
</g>
<!-- PuzzleGameComponent -->
<g id="node9" class="node">
<title>PuzzleGameComponent</title>
<polygon fill="#ffffb3" stroke="black" points="474.08,-84.8 321.92,-84.8 321.92,-48.8 474.08,-48.8 474.08,-84.8"/>
<text text-anchor="middle" x="398" y="-62.6" font-family="Times,serif" font-size="14.00">PuzzleGameComponent</text>
</g>
<!-- PuzzleGameComponent&#45;&gt;AppModule -->
<g id="edge9" class="edge">
<title>PuzzleGameComponent&#45;&gt;AppModule</title>
<path fill="none" stroke="black" d="M398,-84.91C398,-104.14 398,-131.8 398,-131.8 398,-131.8 808.19,-131.8 808.19,-131.8"/>
<polygon fill="black" stroke="black" points="808.19,-135.3 818.19,-131.8 808.19,-128.3 808.19,-135.3"/>
</g>
<!-- RegisterComponent -->
<g id="node10" class="node">
<title>RegisterComponent</title>
<polygon fill="#ffffb3" stroke="black" points="303.99,-84.8 176.01,-84.8 176.01,-48.8 303.99,-48.8 303.99,-84.8"/>
<text text-anchor="middle" x="240" y="-62.6" font-family="Times,serif" font-size="14.00">RegisterComponent</text>
</g>
<!-- RegisterComponent&#45;&gt;AppModule -->
<g id="edge10" class="edge">
<title>RegisterComponent&#45;&gt;AppModule</title>
<path fill="none" stroke="black" d="M240,-85.08C240,-106.12 240,-137.8 240,-137.8 240,-137.8 807.87,-137.8 807.87,-137.8"/>
<polygon fill="black" stroke="black" points="807.87,-141.3 817.87,-137.8 807.87,-134.3 807.87,-141.3"/>
</g>
<!-- AppComponent  -->
<g id="node13" class="node">
<title>AppComponent </title>
<polygon fill="#80b1d3" stroke="black" points="914.44,-214.8 805.56,-214.8 805.56,-178.8 914.44,-178.8 914.44,-214.8"/>
<text text-anchor="middle" x="860" y="-192.6" font-family="Times,serif" font-size="14.00">AppComponent </text>
</g>
<!-- AppModule&#45;&gt;AppComponent  -->
<g id="edge12" class="edge">
<title>AppModule&#45;&gt;AppComponent </title>
<path fill="none" stroke="black" stroke-dasharray="1,5" d="M860,-149.91C860,-149.91 860,-168.79 860,-168.79"/>
<polygon fill="black" stroke="black" points="856.5,-168.79 860,-178.79 863.5,-168.79 856.5,-168.79"/>
</g>
<!-- AppRoutingModule -->
<g id="node12" class="node">
<title>AppRoutingModule</title>
<polygon fill="#8dd3c7" stroke="black" points="152.28,-84.8 149.28,-88.8 128.28,-88.8 125.28,-84.8 23.72,-84.8 23.72,-48.8 152.28,-48.8 152.28,-84.8"/>
<text text-anchor="middle" x="88" y="-62.6" font-family="Times,serif" font-size="14.00">AppRoutingModule</text>
</g>
<!-- AppRoutingModule&#45;&gt;AppModule -->
<g id="edge11" class="edge">
<title>AppRoutingModule&#45;&gt;AppModule</title>
<path fill="none" stroke="black" d="M88,-85.05C88,-107.82 88,-143.8 88,-143.8 88,-143.8 808.22,-143.8 808.22,-143.8"/>
<polygon fill="black" stroke="black" points="808.22,-147.3 818.22,-143.8 808.22,-140.3 808.22,-147.3"/>
</g>
</g>
</svg>
