<?xml version="1.0" encoding="UTF-8" standalone="no"?>
<!DOCTYPE svg PUBLIC "-//W3C//DTD SVG 1.1//EN"
 "http://www.w3.org/Graphics/SVG/1.1/DTD/svg11.dtd">
<!-- Generated by graphviz version 5.0.0 (20220707.1540)
 -->
<!-- Title: dependencies Pages: 1 -->
<svg width="1791pt" height="247pt"
 viewBox="0.00 0.00 1791.00 246.80" xmlns="http://www.w3.org/2000/svg" xmlns:xlink="http://www.w3.org/1999/xlink">
<g id="graph0" class="graph" transform="scale(1 1) rotate(0) translate(4 242.8)">
<title>dependencies</title>
<polygon fill="white" stroke="transparent" points="-4,4 -4,-242.8 1787,-242.8 1787,4 -4,4"/>
<text text-anchor="middle" x="891.5" y="-8.2" font-family="sans-serif" font-size="14.00">dependencies</text>
<g id="clust1" class="cluster">
<title>cluster_AppModule</title>
<polygon fill="none" stroke="black" stroke-dasharray="1,5" points="8,-32.8 8,-230.8 1775,-230.8 1775,-32.8 8,-32.8"/>
</g>
<g id="clust2" class="cluster">
<title>cluster_AppModule_declarations</title>
<polygon fill="none" stroke="black" points="283,-40.8 283,-92.8 1767,-92.8 1767,-40.8 283,-40.8"/>
</g>
<g id="clust13" class="cluster">
<title>cluster_AppModule_imports</title>
<polygon fill="none" stroke="black" points="16,-40.8 16,-92.8 275,-92.8 275,-40.8 16,-40.8"/>
</g>
<g id="clust15" class="cluster">
<title>cluster_AppModule_bootstrap</title>
<polygon fill="none" stroke="black" points="833,-170.8 833,-222.8 957,-222.8 957,-170.8 833,-170.8"/>
</g>
<!-- AppComponent -->
<g id="node1" class="node">
<title>AppComponent</title>
<polygon fill="#ffffb3" stroke="black" points="1758.94,-84.8 1653.06,-84.8 1653.06,-48.8 1758.94,-48.8 1758.94,-84.8"/>
<text text-anchor="middle" x="1706" y="-62.6" font-family="Times,serif" font-size="14.00">AppComponent</text>
</g>
<!-- AppModule -->
<g id="node11" class="node">
<title>AppModule</title>
<polygon fill="#8dd3c7" stroke="black" points="936.66,-149.8 933.66,-153.8 912.66,-153.8 909.66,-149.8 853.34,-149.8 853.34,-113.8 936.66,-113.8 936.66,-149.8"/>
<text text-anchor="middle" x="895" y="-127.6" font-family="Times,serif" font-size="14.00">AppModule</text>
</g>
<!-- AppComponent&#45;&gt;AppModule -->
<g id="edge1" class="edge">
<title>AppComponent&#45;&gt;AppModule</title>
<path fill="none" stroke="black" d="M1706,-85.05C1706,-107.82 1706,-143.8 1706,-143.8 1706,-143.8 946.9,-143.8 946.9,-143.8"/>
<polygon fill="black" stroke="black" points="946.9,-140.3 936.9,-143.8 946.9,-147.3 946.9,-140.3"/>
</g>
<!-- DialogComponent -->
<g id="node2" class="node">
<title>DialogComponent</title>
<polygon fill="#ffffb3" stroke="black" points="1635.94,-84.8 1516.06,-84.8 1516.06,-48.8 1635.94,-48.8 1635.94,-84.8"/>
<text text-anchor="middle" x="1576" y="-62.6" font-family="Times,serif" font-size="14.00">DialogComponent</text>
</g>
<!-- DialogComponent&#45;&gt;AppModule -->
<g id="edge2" class="edge">
<title>DialogComponent&#45;&gt;AppModule</title>
<path fill="none" stroke="black" d="M1576,-85.08C1576,-106.12 1576,-137.8 1576,-137.8 1576,-137.8 946.83,-137.8 946.83,-137.8"/>
<polygon fill="black" stroke="black" points="946.83,-134.3 936.83,-137.8 946.83,-141.3 946.83,-134.3"/>
</g>
<!-- DialogDataExampleDialog -->
<g id="node3" class="node">
<title>DialogDataExampleDialog</title>
<polygon fill="#ffffb3" stroke="black" points="1498.39,-84.8 1329.61,-84.8 1329.61,-48.8 1498.39,-48.8 1498.39,-84.8"/>
<text text-anchor="middle" x="1414" y="-62.6" font-family="Times,serif" font-size="14.00">DialogDataExampleDialog</text>
</g>
<!-- DialogDataExampleDialog&#45;&gt;AppModule -->
<g id="edge3" class="edge">
<title>DialogDataExampleDialog&#45;&gt;AppModule</title>
<path fill="none" stroke="black" d="M1414,-84.91C1414,-104.14 1414,-131.8 1414,-131.8 1414,-131.8 947.03,-131.8 947.03,-131.8"/>
<polygon fill="black" stroke="black" points="947.03,-128.3 937.03,-131.8 947.03,-135.3 947.03,-128.3"/>
</g>
<!-- FooterComponent -->
<g id="node4" class="node">
<title>FooterComponent</title>
<polygon fill="#ffffb3" stroke="black" points="1311.88,-84.8 1194.12,-84.8 1194.12,-48.8 1311.88,-48.8 1311.88,-84.8"/>
<text text-anchor="middle" x="1253" y="-62.6" font-family="Times,serif" font-size="14.00">FooterComponent</text>
</g>
<!-- FooterComponent&#45;&gt;AppModule -->
<g id="edge4" class="edge">
<title>FooterComponent&#45;&gt;AppModule</title>
<path fill="none" stroke="black" d="M1253,-84.82C1253,-102.17 1253,-125.8 1253,-125.8 1253,-125.8 946.77,-125.8 946.77,-125.8"/>
<polygon fill="black" stroke="black" points="946.77,-122.3 936.77,-125.8 946.77,-129.3 946.77,-122.3"/>
</g>
<!-- LoginComponent -->
<g id="node5" class="node">
<title>LoginComponent</title>
<polygon fill="#ffffb3" stroke="black" points="1176.27,-84.8 1061.73,-84.8 1061.73,-48.8 1176.27,-48.8 1176.27,-84.8"/>
<text text-anchor="middle" x="1119" y="-62.6" font-family="Times,serif" font-size="14.00">LoginComponent</text>
</g>
<!-- LoginComponent&#45;&gt;AppModule -->
<g id="edge5" class="edge">
<title>LoginComponent&#45;&gt;AppModule</title>
<path fill="none" stroke="black" d="M1119,-85.04C1119,-100.37 1119,-119.8 1119,-119.8 1119,-119.8 946.87,-119.8 946.87,-119.8"/>
<polygon fill="black" stroke="black" points="946.87,-116.3 936.87,-119.8 946.87,-123.3 946.87,-116.3"/>
</g>
<!-- MainPageComponent -->
<g id="node6" class="node">
<title>MainPageComponent</title>
<polygon fill="#ffffb3" stroke="black" points="1044.1,-84.8 905.9,-84.8 905.9,-48.8 1044.1,-48.8 1044.1,-84.8"/>
<text text-anchor="middle" x="975" y="-62.6" font-family="Times,serif" font-size="14.00">MainPageComponent</text>
</g>
<!-- MainPageComponent&#45;&gt;AppModule -->
<g id="edge6" class="edge">
<title>MainPageComponent&#45;&gt;AppModule</title>
<path fill="none" stroke="black" d="M921.39,-84.91C921.39,-84.91 921.39,-103.79 921.39,-103.79"/>
<polygon fill="black" stroke="black" points="917.89,-103.79 921.39,-113.79 924.89,-103.79 917.89,-103.79"/>
</g>
<!-- NavigationComponent -->
<g id="node7" class="node">
<title>NavigationComponent</title>
<polygon fill="#ffffb3" stroke="black" points="887.54,-84.8 744.46,-84.8 744.46,-48.8 887.54,-48.8 887.54,-84.8"/>
<text text-anchor="middle" x="816" y="-62.6" font-family="Times,serif" font-size="14.00">NavigationComponent</text>
</g>
<!-- NavigationComponent&#45;&gt;AppModule -->
<g id="edge7" class="edge">
<title>NavigationComponent&#45;&gt;AppModule</title>
<path fill="none" stroke="black" d="M870.47,-84.91C870.47,-84.91 870.47,-103.79 870.47,-103.79"/>
<polygon fill="black" stroke="black" points="866.97,-103.79 870.47,-113.79 873.97,-103.79 866.97,-103.79"/>
</g>
<!-- ProfileComponent -->
<g id="node8" class="node">
<title>ProfileComponent</title>
<polygon fill="#ffffb3" stroke="black" points="726.94,-84.8 607.06,-84.8 607.06,-48.8 726.94,-48.8 726.94,-84.8"/>
<text text-anchor="middle" x="667" y="-62.6" font-family="Times,serif" font-size="14.00">ProfileComponent</text>
</g>
<!-- ProfileComponent&#45;&gt;AppModule -->
<g id="edge8" class="edge">
<title>ProfileComponent&#45;&gt;AppModule</title>
<path fill="none" stroke="black" d="M667,-85.04C667,-100.37 667,-119.8 667,-119.8 667,-119.8 843.18,-119.8 843.18,-119.8"/>
<polygon fill="black" stroke="black" points="843.18,-123.3 853.18,-119.8 843.18,-116.3 843.18,-123.3"/>
</g>
<!-- PuzzleGameComponent -->
<g id="node9" class="node">
<title>PuzzleGameComponent</title>
<polygon fill="#ffffb3" stroke="black" points="589.08,-84.8 436.92,-84.8 436.92,-48.8 589.08,-48.8 589.08,-84.8"/>
<text text-anchor="middle" x="513" y="-62.6" font-family="Times,serif" font-size="14.00">PuzzleGameComponent</text>
</g>
<!-- PuzzleGameComponent&#45;&gt;AppModule -->
<g id="edge9" class="edge">
<title>PuzzleGameComponent&#45;&gt;AppModule</title>
<path fill="none" stroke="black" d="M513,-84.82C513,-102.17 513,-125.8 513,-125.8 513,-125.8 843.03,-125.8 843.03,-125.8"/>
<polygon fill="black" stroke="black" points="843.03,-129.3 853.03,-125.8 843.03,-122.3 843.03,-129.3"/>
</g>
<!-- RegisterComponent -->
<g id="node10" class="node">
<title>RegisterComponent</title>
<polygon fill="#ffffb3" stroke="black" points="418.99,-84.8 291.01,-84.8 291.01,-48.8 418.99,-48.8 418.99,-84.8"/>
<text text-anchor="middle" x="355" y="-62.6" font-family="Times,serif" font-size="14.00">RegisterComponent</text>
</g>
<!-- RegisterComponent&#45;&gt;AppModule -->
<g id="edge10" class="edge">
<title>RegisterComponent&#45;&gt;AppModule</title>
<path fill="none" stroke="black" d="M355,-84.91C355,-104.14 355,-131.8 355,-131.8 355,-131.8 843.08,-131.8 843.08,-131.8"/>
<polygon fill="black" stroke="black" points="843.08,-135.3 853.08,-131.8 843.08,-128.3 843.08,-135.3"/>
</g>
<!-- AppComponent  -->
<g id="node14" class="node">
<title>AppComponent </title>
<polygon fill="#80b1d3" stroke="black" points="949.44,-214.8 840.56,-214.8 840.56,-178.8 949.44,-178.8 949.44,-214.8"/>
<text text-anchor="middle" x="895" y="-192.6" font-family="Times,serif" font-size="14.00">AppComponent </text>
</g>
<!-- AppModule&#45;&gt;AppComponent  -->
<g id="edge13" class="edge">
<title>AppModule&#45;&gt;AppComponent </title>
<path fill="none" stroke="black" stroke-dasharray="1,5" d="M895,-149.91C895,-149.91 895,-168.79 895,-168.79"/>
<polygon fill="black" stroke="black" points="891.5,-168.79 895,-178.79 898.5,-168.79 891.5,-168.79"/>
</g>
<!-- AppRoutingModule -->
<g id="node12" class="node">
<title>AppRoutingModule</title>
<polygon fill="#8dd3c7" stroke="black" points="267.28,-84.8 264.28,-88.8 243.28,-88.8 240.28,-84.8 138.72,-84.8 138.72,-48.8 267.28,-48.8 267.28,-84.8"/>
<text text-anchor="middle" x="203" y="-62.6" font-family="Times,serif" font-size="14.00">AppRoutingModule</text>
</g>
<!-- AppRoutingModule&#45;&gt;AppModule -->
<g id="edge11" class="edge">
<title>AppRoutingModule&#45;&gt;AppModule</title>
<path fill="none" stroke="black" d="M203,-85.08C203,-106.12 203,-137.8 203,-137.8 203,-137.8 843.27,-137.8 843.27,-137.8"/>
<polygon fill="black" stroke="black" points="843.27,-141.3 853.27,-137.8 843.27,-134.3 843.27,-141.3"/>
</g>
<!-- PuzzleModule -->
<g id="node13" class="node">
<title>PuzzleModule</title>
<polygon fill="#8dd3c7" stroke="black" points="120.37,-84.8 117.37,-88.8 96.37,-88.8 93.37,-84.8 23.63,-84.8 23.63,-48.8 120.37,-48.8 120.37,-84.8"/>
<text text-anchor="middle" x="72" y="-62.6" font-family="Times,serif" font-size="14.00">PuzzleModule</text>
</g>
<!-- PuzzleModule&#45;&gt;AppModule -->
<g id="edge12" class="edge">
<title>PuzzleModule&#45;&gt;AppModule</title>
<path fill="none" stroke="black" d="M72,-85.05C72,-107.82 72,-143.8 72,-143.8 72,-143.8 843.06,-143.8 843.06,-143.8"/>
<polygon fill="black" stroke="black" points="843.06,-147.3 853.06,-143.8 843.06,-140.3 843.06,-147.3"/>
</g>
</g>
</svg>
