<?xml version="1.0" encoding="UTF-8" standalone="no"?>
<!DOCTYPE svg PUBLIC "-//W3C//DTD SVG 1.1//EN"
 "http://www.w3.org/Graphics/SVG/1.1/DTD/svg11.dtd">
<!-- Generated by graphviz version 5.0.0 (20220707.1540)
 -->
<!-- Title: dependencies Pages: 1 -->
<svg width="1991pt" height="247pt"
 viewBox="0.00 0.00 1991.00 246.80" xmlns="http://www.w3.org/2000/svg" xmlns:xlink="http://www.w3.org/1999/xlink">
<g id="graph0" class="graph" transform="scale(1 1) rotate(0) translate(4 242.8)">
<title>dependencies</title>
<polygon fill="white" stroke="transparent" points="-4,4 -4,-242.8 1987,-242.8 1987,4 -4,4"/>
<text text-anchor="middle" x="991.5" y="-8.2" font-family="sans-serif" font-size="14.00">dependencies</text>
<g id="clust22" class="cluster">
<title>cluster_StartGameModule</title>
<polygon fill="none" stroke="black" stroke-dasharray="1,5" points="1522,-32.8 1522,-157.8 1975,-157.8 1975,-32.8 1522,-32.8"/>
</g>
<g id="clust29" class="cluster">
<title>cluster_StartGameModule_providers</title>
<polygon fill="none" stroke="black" points="1827,-40.8 1827,-92.8 1967,-92.8 1967,-40.8 1827,-40.8"/>
</g>
<g id="clust23" class="cluster">
<title>cluster_StartGameModule_declarations</title>
<polygon fill="none" stroke="black" points="1530,-40.8 1530,-92.8 1819,-92.8 1819,-40.8 1530,-40.8"/>
</g>
<g id="clust1" class="cluster">
<title>cluster_AppModule</title>
<polygon fill="none" stroke="black" stroke-dasharray="1,5" points="8,-32.8 8,-230.8 1514,-230.8 1514,-32.8 8,-32.8"/>
</g>
<g id="clust12" class="cluster">
<title>cluster_AppModule_imports</title>
<polygon fill="none" stroke="black" points="1362,-40.8 1362,-92.8 1506,-92.8 1506,-40.8 1362,-40.8"/>
</g>
<g id="clust14" class="cluster">
<title>cluster_AppModule_bootstrap</title>
<polygon fill="none" stroke="black" points="711,-170.8 711,-222.8 835,-222.8 835,-170.8 711,-170.8"/>
</g>
<g id="clust2" class="cluster">
<title>cluster_AppModule_declarations</title>
<polygon fill="none" stroke="black" points="16,-40.8 16,-92.8 1354,-92.8 1354,-40.8 16,-40.8"/>
</g>
<!-- AppComponent -->
<g id="node1" class="node">
<title>AppComponent</title>
<polygon fill="#ffffb3" stroke="black" points="1345.94,-84.8 1240.06,-84.8 1240.06,-48.8 1345.94,-48.8 1345.94,-84.8"/>
<text text-anchor="middle" x="1293" y="-62.6" font-family="Times,serif" font-size="14.00">AppComponent</text>
</g>
<!-- AppModule -->
<g id="node10" class="node">
<title>AppModule</title>
<polygon fill="#8dd3c7" stroke="black" points="814.66,-149.8 811.66,-153.8 790.66,-153.8 787.66,-149.8 731.34,-149.8 731.34,-113.8 814.66,-113.8 814.66,-149.8"/>
<text text-anchor="middle" x="773" y="-127.6" font-family="Times,serif" font-size="14.00">AppModule</text>
</g>
<!-- AppComponent&#45;&gt;AppModule -->
<g id="edge1" class="edge">
<title>AppComponent&#45;&gt;AppModule</title>
<path fill="none" stroke="black" d="M1293,-84.91C1293,-104.14 1293,-131.8 1293,-131.8 1293,-131.8 824.67,-131.8 824.67,-131.8"/>
<polygon fill="black" stroke="black" points="824.67,-128.3 814.67,-131.8 824.67,-135.3 824.67,-128.3"/>
</g>
<!-- DialogComponent -->
<g id="node2" class="node">
<title>DialogComponent</title>
<polygon fill="#ffffb3" stroke="black" points="1222.94,-84.8 1103.06,-84.8 1103.06,-48.8 1222.94,-48.8 1222.94,-84.8"/>
<text text-anchor="middle" x="1163" y="-62.6" font-family="Times,serif" font-size="14.00">DialogComponent</text>
</g>
<!-- DialogComponent&#45;&gt;AppModule -->
<g id="edge2" class="edge">
<title>DialogComponent&#45;&gt;AppModule</title>
<path fill="none" stroke="black" d="M1163,-84.82C1163,-102.17 1163,-125.8 1163,-125.8 1163,-125.8 824.74,-125.8 824.74,-125.8"/>
<polygon fill="black" stroke="black" points="824.74,-122.3 814.74,-125.8 824.74,-129.3 824.74,-122.3"/>
</g>
<!-- DialogDataExampleDialog -->
<g id="node3" class="node">
<title>DialogDataExampleDialog</title>
<polygon fill="#ffffb3" stroke="black" points="1085.39,-84.8 916.61,-84.8 916.61,-48.8 1085.39,-48.8 1085.39,-84.8"/>
<text text-anchor="middle" x="1001" y="-62.6" font-family="Times,serif" font-size="14.00">DialogDataExampleDialog</text>
</g>
<!-- DialogDataExampleDialog&#45;&gt;AppModule -->
<g id="edge3" class="edge">
<title>DialogDataExampleDialog&#45;&gt;AppModule</title>
<path fill="none" stroke="black" d="M1001,-85.04C1001,-100.37 1001,-119.8 1001,-119.8 1001,-119.8 824.82,-119.8 824.82,-119.8"/>
<polygon fill="black" stroke="black" points="824.82,-116.3 814.82,-119.8 824.82,-123.3 824.82,-116.3"/>
</g>
<!-- FooterComponent -->
<g id="node4" class="node">
<title>FooterComponent</title>
<polygon fill="#ffffb3" stroke="black" points="898.88,-84.8 781.12,-84.8 781.12,-48.8 898.88,-48.8 898.88,-84.8"/>
<text text-anchor="middle" x="840" y="-62.6" font-family="Times,serif" font-size="14.00">FooterComponent</text>
</g>
<!-- FooterComponent&#45;&gt;AppModule -->
<g id="edge4" class="edge">
<title>FooterComponent&#45;&gt;AppModule</title>
<path fill="none" stroke="black" d="M797.94,-84.91C797.94,-84.91 797.94,-103.79 797.94,-103.79"/>
<polygon fill="black" stroke="black" points="794.44,-103.79 797.94,-113.79 801.44,-103.79 794.44,-103.79"/>
</g>
<!-- LoginComponent -->
<g id="node5" class="node">
<title>LoginComponent</title>
<polygon fill="#ffffb3" stroke="black" points="763.27,-84.8 648.73,-84.8 648.73,-48.8 763.27,-48.8 763.27,-84.8"/>
<text text-anchor="middle" x="706" y="-62.6" font-family="Times,serif" font-size="14.00">LoginComponent</text>
</g>
<!-- LoginComponent&#45;&gt;AppModule -->
<g id="edge5" class="edge">
<title>LoginComponent&#45;&gt;AppModule</title>
<path fill="none" stroke="black" d="M747.28,-84.91C747.28,-84.91 747.28,-103.79 747.28,-103.79"/>
<polygon fill="black" stroke="black" points="743.78,-103.79 747.28,-113.79 750.78,-103.79 743.78,-103.79"/>
</g>
<!-- MainPageComponent -->
<g id="node6" class="node">
<title>MainPageComponent</title>
<polygon fill="#ffffb3" stroke="black" points="631.1,-84.8 492.9,-84.8 492.9,-48.8 631.1,-48.8 631.1,-84.8"/>
<text text-anchor="middle" x="562" y="-62.6" font-family="Times,serif" font-size="14.00">MainPageComponent</text>
</g>
<!-- MainPageComponent&#45;&gt;AppModule -->
<g id="edge6" class="edge">
<title>MainPageComponent&#45;&gt;AppModule</title>
<path fill="none" stroke="black" d="M562,-84.81C562,-100.85 562,-121.8 562,-121.8 562,-121.8 721.31,-121.8 721.31,-121.8"/>
<polygon fill="black" stroke="black" points="721.31,-125.3 731.31,-121.8 721.31,-118.3 721.31,-125.3"/>
</g>
<!-- NavigationComponent -->
<g id="node7" class="node">
<title>NavigationComponent</title>
<polygon fill="#ffffb3" stroke="black" points="474.54,-84.8 331.46,-84.8 331.46,-48.8 474.54,-48.8 474.54,-84.8"/>
<text text-anchor="middle" x="403" y="-62.6" font-family="Times,serif" font-size="14.00">NavigationComponent</text>
</g>
<!-- NavigationComponent&#45;&gt;AppModule -->
<g id="edge7" class="edge">
<title>NavigationComponent&#45;&gt;AppModule</title>
<path fill="none" stroke="black" d="M403,-85.07C403,-103.36 403,-128.8 403,-128.8 403,-128.8 721.28,-128.8 721.28,-128.8"/>
<polygon fill="black" stroke="black" points="721.28,-132.3 731.28,-128.8 721.28,-125.3 721.28,-132.3"/>
</g>
<!-- ProfileComponent -->
<g id="node8" class="node">
<title>ProfileComponent</title>
<polygon fill="#ffffb3" stroke="black" points="313.94,-84.8 194.06,-84.8 194.06,-48.8 313.94,-48.8 313.94,-84.8"/>
<text text-anchor="middle" x="254" y="-62.6" font-family="Times,serif" font-size="14.00">ProfileComponent</text>
</g>
<!-- ProfileComponent&#45;&gt;AppModule -->
<g id="edge8" class="edge">
<title>ProfileComponent&#45;&gt;AppModule</title>
<path fill="none" stroke="black" d="M254,-84.93C254,-105.37 254,-135.8 254,-135.8 254,-135.8 720.97,-135.8 720.97,-135.8"/>
<polygon fill="black" stroke="black" points="720.97,-139.3 730.97,-135.8 720.97,-132.3 720.97,-139.3"/>
</g>
<!-- PuzzleGameComponent -->
<g id="node9" class="node">
<title>PuzzleGameComponent</title>
<polygon fill="#ffffb3" stroke="black" points="176.08,-84.8 23.92,-84.8 23.92,-48.8 176.08,-48.8 176.08,-84.8"/>
<text text-anchor="middle" x="100" y="-62.6" font-family="Times,serif" font-size="14.00">PuzzleGameComponent</text>
</g>
<!-- PuzzleGameComponent&#45;&gt;AppModule -->
<g id="edge9" class="edge">
<title>PuzzleGameComponent&#45;&gt;AppModule</title>
<path fill="none" stroke="black" d="M100,-84.81C100,-107.29 100,-142.8 100,-142.8 100,-142.8 721.16,-142.8 721.16,-142.8"/>
<polygon fill="black" stroke="black" points="721.16,-146.3 731.16,-142.8 721.16,-139.3 721.16,-146.3"/>
</g>
<!-- AppComponent  -->
<g id="node12" class="node">
<title>AppComponent </title>
<polygon fill="#80b1d3" stroke="black" points="827.44,-214.8 718.56,-214.8 718.56,-178.8 827.44,-178.8 827.44,-214.8"/>
<text text-anchor="middle" x="773" y="-192.6" font-family="Times,serif" font-size="14.00">AppComponent </text>
</g>
<!-- AppModule&#45;&gt;AppComponent  -->
<g id="edge11" class="edge">
<title>AppModule&#45;&gt;AppComponent </title>
<path fill="none" stroke="black" stroke-dasharray="1,5" d="M773,-149.91C773,-149.91 773,-168.79 773,-168.79"/>
<polygon fill="black" stroke="black" points="769.5,-168.79 773,-178.79 776.5,-168.79 769.5,-168.79"/>
</g>
<!-- AppRoutingModule -->
<g id="node11" class="node">
<title>AppRoutingModule</title>
<polygon fill="#8dd3c7" stroke="black" points="1498.28,-84.8 1495.28,-88.8 1474.28,-88.8 1471.28,-84.8 1369.72,-84.8 1369.72,-48.8 1498.28,-48.8 1498.28,-84.8"/>
<text text-anchor="middle" x="1434" y="-62.6" font-family="Times,serif" font-size="14.00">AppRoutingModule</text>
</g>
<!-- AppRoutingModule&#45;&gt;AppModule -->
<g id="edge10" class="edge">
<title>AppRoutingModule&#45;&gt;AppModule</title>
<path fill="none" stroke="black" d="M1434,-85.08C1434,-106.12 1434,-137.8 1434,-137.8 1434,-137.8 824.85,-137.8 824.85,-137.8"/>
<polygon fill="black" stroke="black" points="824.85,-134.3 814.85,-137.8 824.85,-141.3 824.85,-134.3"/>
</g>
<!-- StartGameComponent -->
<g id="node13" class="node">
<title>StartGameComponent</title>
<polygon fill="#ffffb3" stroke="black" points="1810.7,-84.8 1669.3,-84.8 1669.3,-48.8 1810.7,-48.8 1810.7,-84.8"/>
<text text-anchor="middle" x="1740" y="-62.6" font-family="Times,serif" font-size="14.00">StartGameComponent</text>
</g>
<!-- StartGameModule -->
<g id="node15" class="node">
<title>StartGameModule</title>
<polygon fill="#8dd3c7" stroke="black" points="1799.92,-149.8 1796.92,-153.8 1775.92,-153.8 1772.92,-149.8 1680.08,-149.8 1680.08,-113.8 1799.92,-113.8 1799.92,-149.8"/>
<text text-anchor="middle" x="1740" y="-127.6" font-family="Times,serif" font-size="14.00">StartGameModule</text>
</g>
<!-- StartGameComponent&#45;&gt;StartGameModule -->
<g id="edge12" class="edge">
<title>StartGameComponent&#45;&gt;StartGameModule</title>
<path fill="none" stroke="black" d="M1740,-84.91C1740,-84.91 1740,-103.79 1740,-103.79"/>
<polygon fill="black" stroke="black" points="1736.5,-103.79 1740,-113.79 1743.5,-103.79 1736.5,-103.79"/>
</g>
<!-- TableComponent -->
<g id="node14" class="node">
<title>TableComponent</title>
<polygon fill="#ffffb3" stroke="black" points="1651.7,-84.8 1538.3,-84.8 1538.3,-48.8 1651.7,-48.8 1651.7,-84.8"/>
<text text-anchor="middle" x="1595" y="-62.6" font-family="Times,serif" font-size="14.00">TableComponent</text>
</g>
<!-- TableComponent&#45;&gt;StartGameModule -->
<g id="edge13" class="edge">
<title>TableComponent&#45;&gt;StartGameModule</title>
<path fill="none" stroke="black" d="M1595,-85.05C1595,-107.82 1595,-143.8 1595,-143.8 1595,-143.8 1670.19,-143.8 1670.19,-143.8"/>
<polygon fill="black" stroke="black" points="1670.19,-147.3 1680.19,-143.8 1670.19,-140.3 1670.19,-147.3"/>
</g>
<!-- UsersService -->
<g id="node16" class="node">
<title>UsersService</title>
<ellipse fill="#fdb462" stroke="black" cx="1897" cy="-66.8" rx="61.97" ry="18"/>
<text text-anchor="middle" x="1897" y="-62.6" font-family="Times,serif" font-size="14.00">UsersService</text>
</g>
<!-- UsersService&#45;&gt;StartGameModule -->
<g id="edge14" class="edge">
<title>UsersService&#45;&gt;StartGameModule</title>
<path fill="none" stroke="black" d="M1897,-84.91C1897,-104.14 1897,-131.8 1897,-131.8 1897,-131.8 1809.8,-131.8 1809.8,-131.8"/>
<polygon fill="black" stroke="black" points="1809.8,-128.3 1799.8,-131.8 1809.8,-135.3 1809.8,-128.3"/>
</g>
</g>
</svg>
