<?xml version="1.0" encoding="UTF-8" standalone="no"?>
<!DOCTYPE svg PUBLIC "-//W3C//DTD SVG 1.1//EN"
 "http://www.w3.org/Graphics/SVG/1.1/DTD/svg11.dtd">
<!-- Generated by graphviz version 5.0.0 (20220707.1540)
 -->
<!-- Title: dependencies Pages: 1 -->
<svg width="2295pt" height="315pt"
 viewBox="0.00 0.00 2295.00 314.80" xmlns="http://www.w3.org/2000/svg" xmlns:xlink="http://www.w3.org/1999/xlink">
<g id="graph0" class="graph" transform="scale(1 1) rotate(0) translate(4 310.8)">
<title>dependencies</title>
<polygon fill="white" stroke="transparent" points="-4,4 -4,-310.8 2291,-310.8 2291,4 -4,4"/>
<text text-anchor="middle" x="1143.5" y="-8.2" font-family="sans-serif" font-size="14.00">dependencies</text>
<g id="clust29" class="cluster">
<title>cluster_PuzzleModule</title>
<polygon fill="none" stroke="black" stroke-dasharray="1,5" points="1668,-32.8 1668,-160.8 1818,-160.8 1818,-32.8 1668,-32.8"/>
</g>
<g id="clust30" class="cluster">
<title>cluster_PuzzleModule_declarations</title>
<polygon fill="none" stroke="black" points="1676,-40.8 1676,-92.8 1810,-92.8 1810,-40.8 1676,-40.8"/>
</g>
<g id="clust36" class="cluster">
<title>cluster_StartGameModule</title>
<polygon fill="none" stroke="black" stroke-dasharray="1,5" points="1826,-32.8 1826,-160.8 2279,-160.8 2279,-32.8 1826,-32.8"/>
</g>
<g id="clust37" class="cluster">
<title>cluster_StartGameModule_declarations</title>
<polygon fill="none" stroke="black" points="1982,-40.8 1982,-92.8 2271,-92.8 2271,-40.8 1982,-40.8"/>
</g>
<g id="clust43" class="cluster">
<title>cluster_StartGameModule_providers</title>
<polygon fill="none" stroke="black" points="1834,-40.8 1834,-92.8 1974,-92.8 1974,-40.8 1834,-40.8"/>
</g>
<g id="clust1" class="cluster">
<title>cluster_AppModule</title>
<polygon fill="none" stroke="black" stroke-dasharray="1,5" points="8,-100.8 8,-298.8 1660,-298.8 1660,-100.8 8,-100.8"/>
</g>
<g id="clust2" class="cluster">
<title>cluster_AppModule_declarations</title>
<polygon fill="none" stroke="black" points="168,-108.8 168,-160.8 1652,-160.8 1652,-108.8 168,-108.8"/>
</g>
<g id="clust13" class="cluster">
<title>cluster_AppModule_imports</title>
<polygon fill="none" stroke="black" points="16,-108.8 16,-160.8 160,-160.8 160,-108.8 16,-108.8"/>
</g>
<g id="clust15" class="cluster">
<title>cluster_AppModule_bootstrap</title>
<polygon fill="none" stroke="black" points="870,-238.8 870,-290.8 994,-290.8 994,-238.8 870,-238.8"/>
</g>
<!-- AppComponent -->
<g id="node1" class="node">
<title>AppComponent</title>
<polygon fill="#ffffb3" stroke="black" points="1643.94,-152.8 1538.06,-152.8 1538.06,-116.8 1643.94,-116.8 1643.94,-152.8"/>
<text text-anchor="middle" x="1591" y="-130.6" font-family="Times,serif" font-size="14.00">AppComponent</text>
</g>
<!-- AppModule -->
<g id="node11" class="node">
<title>AppModule</title>
<polygon fill="#8dd3c7" stroke="black" points="973.66,-217.8 970.66,-221.8 949.66,-221.8 946.66,-217.8 890.34,-217.8 890.34,-181.8 973.66,-181.8 973.66,-217.8"/>
<text text-anchor="middle" x="932" y="-195.6" font-family="Times,serif" font-size="14.00">AppModule</text>
</g>
<!-- AppComponent&#45;&gt;AppModule -->
<g id="edge1" class="edge">
<title>AppComponent&#45;&gt;AppModule</title>
<path fill="none" stroke="black" d="M1591,-153.08C1591,-174.12 1591,-205.8 1591,-205.8 1591,-205.8 983.72,-205.8 983.72,-205.8"/>
<polygon fill="black" stroke="black" points="983.72,-202.3 973.72,-205.8 983.72,-209.3 983.72,-202.3"/>
</g>
<!-- DialogComponent -->
<g id="node2" class="node">
<title>DialogComponent</title>
<polygon fill="#ffffb3" stroke="black" points="1520.94,-152.8 1401.06,-152.8 1401.06,-116.8 1520.94,-116.8 1520.94,-152.8"/>
<text text-anchor="middle" x="1461" y="-130.6" font-family="Times,serif" font-size="14.00">DialogComponent</text>
</g>
<!-- DialogComponent&#45;&gt;AppModule -->
<g id="edge2" class="edge">
<title>DialogComponent&#45;&gt;AppModule</title>
<path fill="none" stroke="black" d="M1461,-152.91C1461,-172.14 1461,-199.8 1461,-199.8 1461,-199.8 983.95,-199.8 983.95,-199.8"/>
<polygon fill="black" stroke="black" points="983.95,-196.3 973.95,-199.8 983.95,-203.3 983.95,-196.3"/>
</g>
<!-- DialogDataExampleDialog -->
<g id="node3" class="node">
<title>DialogDataExampleDialog</title>
<polygon fill="#ffffb3" stroke="black" points="1383.39,-152.8 1214.61,-152.8 1214.61,-116.8 1383.39,-116.8 1383.39,-152.8"/>
<text text-anchor="middle" x="1299" y="-130.6" font-family="Times,serif" font-size="14.00">DialogDataExampleDialog</text>
</g>
<!-- DialogDataExampleDialog&#45;&gt;AppModule -->
<g id="edge3" class="edge">
<title>DialogDataExampleDialog&#45;&gt;AppModule</title>
<path fill="none" stroke="black" d="M1299,-152.82C1299,-170.17 1299,-193.8 1299,-193.8 1299,-193.8 983.74,-193.8 983.74,-193.8"/>
<polygon fill="black" stroke="black" points="983.74,-190.3 973.74,-193.8 983.74,-197.3 983.74,-190.3"/>
</g>
<!-- FooterComponent -->
<g id="node4" class="node">
<title>FooterComponent</title>
<polygon fill="#ffffb3" stroke="black" points="1196.88,-152.8 1079.12,-152.8 1079.12,-116.8 1196.88,-116.8 1196.88,-152.8"/>
<text text-anchor="middle" x="1138" y="-130.6" font-family="Times,serif" font-size="14.00">FooterComponent</text>
</g>
<!-- FooterComponent&#45;&gt;AppModule -->
<g id="edge4" class="edge">
<title>FooterComponent&#45;&gt;AppModule</title>
<path fill="none" stroke="black" d="M1138,-153.04C1138,-168.37 1138,-187.8 1138,-187.8 1138,-187.8 983.69,-187.8 983.69,-187.8"/>
<polygon fill="black" stroke="black" points="983.69,-184.3 973.69,-187.8 983.69,-191.3 983.69,-184.3"/>
</g>
<!-- LoginComponent -->
<g id="node5" class="node">
<title>LoginComponent</title>
<polygon fill="#ffffb3" stroke="black" points="1061.27,-152.8 946.73,-152.8 946.73,-116.8 1061.27,-116.8 1061.27,-152.8"/>
<text text-anchor="middle" x="1004" y="-130.6" font-family="Times,serif" font-size="14.00">LoginComponent</text>
</g>
<!-- LoginComponent&#45;&gt;AppModule -->
<g id="edge5" class="edge">
<title>LoginComponent&#45;&gt;AppModule</title>
<path fill="none" stroke="black" d="M960.22,-152.91C960.22,-152.91 960.22,-171.79 960.22,-171.79"/>
<polygon fill="black" stroke="black" points="956.72,-171.79 960.22,-181.79 963.72,-171.79 956.72,-171.79"/>
</g>
<!-- MainPageComponent -->
<g id="node6" class="node">
<title>MainPageComponent</title>
<polygon fill="#ffffb3" stroke="black" points="929.1,-152.8 790.9,-152.8 790.9,-116.8 929.1,-116.8 929.1,-152.8"/>
<text text-anchor="middle" x="860" y="-130.6" font-family="Times,serif" font-size="14.00">MainPageComponent</text>
</g>
<!-- MainPageComponent&#45;&gt;AppModule -->
<g id="edge6" class="edge">
<title>MainPageComponent&#45;&gt;AppModule</title>
<path fill="none" stroke="black" d="M909.61,-152.91C909.61,-152.91 909.61,-171.79 909.61,-171.79"/>
<polygon fill="black" stroke="black" points="906.11,-171.79 909.61,-181.79 913.11,-171.79 906.11,-171.79"/>
</g>
<!-- NavigationComponent -->
<g id="node7" class="node">
<title>NavigationComponent</title>
<polygon fill="#ffffb3" stroke="black" points="772.54,-152.8 629.46,-152.8 629.46,-116.8 772.54,-116.8 772.54,-152.8"/>
<text text-anchor="middle" x="701" y="-130.6" font-family="Times,serif" font-size="14.00">NavigationComponent</text>
</g>
<!-- NavigationComponent&#45;&gt;AppModule -->
<g id="edge7" class="edge">
<title>NavigationComponent&#45;&gt;AppModule</title>
<path fill="none" stroke="black" d="M701,-153.04C701,-168.37 701,-187.8 701,-187.8 701,-187.8 880.17,-187.8 880.17,-187.8"/>
<polygon fill="black" stroke="black" points="880.17,-191.3 890.17,-187.8 880.17,-184.3 880.17,-191.3"/>
</g>
<!-- ProfileComponent -->
<g id="node8" class="node">
<title>ProfileComponent</title>
<polygon fill="#ffffb3" stroke="black" points="611.94,-152.8 492.06,-152.8 492.06,-116.8 611.94,-116.8 611.94,-152.8"/>
<text text-anchor="middle" x="552" y="-130.6" font-family="Times,serif" font-size="14.00">ProfileComponent</text>
</g>
<!-- ProfileComponent&#45;&gt;AppModule -->
<g id="edge8" class="edge">
<title>ProfileComponent&#45;&gt;AppModule</title>
<path fill="none" stroke="black" d="M552,-152.82C552,-170.17 552,-193.8 552,-193.8 552,-193.8 880.25,-193.8 880.25,-193.8"/>
<polygon fill="black" stroke="black" points="880.25,-197.3 890.25,-193.8 880.25,-190.3 880.25,-197.3"/>
</g>
<!-- PuzzleGameComponent -->
<g id="node9" class="node">
<title>PuzzleGameComponent</title>
<polygon fill="#ffffb3" stroke="black" points="474.08,-152.8 321.92,-152.8 321.92,-116.8 474.08,-116.8 474.08,-152.8"/>
<text text-anchor="middle" x="398" y="-130.6" font-family="Times,serif" font-size="14.00">PuzzleGameComponent</text>
</g>
<!-- PuzzleGameComponent&#45;&gt;AppModule -->
<g id="edge9" class="edge">
<title>PuzzleGameComponent&#45;&gt;AppModule</title>
<path fill="none" stroke="black" d="M398,-152.91C398,-172.14 398,-199.8 398,-199.8 398,-199.8 880.1,-199.8 880.1,-199.8"/>
<polygon fill="black" stroke="black" points="880.1,-203.3 890.1,-199.8 880.1,-196.3 880.1,-203.3"/>
</g>
<!-- RegisterComponent -->
<g id="node10" class="node">
<title>RegisterComponent</title>
<polygon fill="#ffffb3" stroke="black" points="303.99,-152.8 176.01,-152.8 176.01,-116.8 303.99,-116.8 303.99,-152.8"/>
<text text-anchor="middle" x="240" y="-130.6" font-family="Times,serif" font-size="14.00">RegisterComponent</text>
</g>
<!-- RegisterComponent&#45;&gt;AppModule -->
<g id="edge10" class="edge">
<title>RegisterComponent&#45;&gt;AppModule</title>
<path fill="none" stroke="black" d="M240,-153.08C240,-174.12 240,-205.8 240,-205.8 240,-205.8 880.27,-205.8 880.27,-205.8"/>
<polygon fill="black" stroke="black" points="880.27,-209.3 890.27,-205.8 880.27,-202.3 880.27,-209.3"/>
</g>
<!-- AppComponent  -->
<g id="node14" class="node">
<title>AppComponent </title>
<polygon fill="#80b1d3" stroke="black" points="986.44,-282.8 877.56,-282.8 877.56,-246.8 986.44,-246.8 986.44,-282.8"/>
<text text-anchor="middle" x="932" y="-260.6" font-family="Times,serif" font-size="14.00">AppComponent </text>
</g>
<!-- AppModule&#45;&gt;AppComponent  -->
<g id="edge13" class="edge">
<title>AppModule&#45;&gt;AppComponent </title>
<path fill="none" stroke="black" stroke-dasharray="1,5" d="M932,-217.91C932,-217.91 932,-236.79 932,-236.79"/>
<polygon fill="black" stroke="black" points="928.5,-236.79 932,-246.79 935.5,-236.79 928.5,-236.79"/>
</g>
<!-- AppRoutingModule -->
<g id="node12" class="node">
<title>AppRoutingModule</title>
<polygon fill="#8dd3c7" stroke="black" points="152.28,-152.8 149.28,-156.8 128.28,-156.8 125.28,-152.8 23.72,-152.8 23.72,-116.8 152.28,-116.8 152.28,-152.8"/>
<text text-anchor="middle" x="88" y="-130.6" font-family="Times,serif" font-size="14.00">AppRoutingModule</text>
</g>
<!-- AppRoutingModule&#45;&gt;AppModule -->
<g id="edge11" class="edge">
<title>AppRoutingModule&#45;&gt;AppModule</title>
<path fill="none" stroke="black" d="M88,-153.05C88,-175.82 88,-211.8 88,-211.8 88,-211.8 880.15,-211.8 880.15,-211.8"/>
<polygon fill="black" stroke="black" points="880.15,-215.3 890.15,-211.8 880.15,-208.3 880.15,-215.3"/>
</g>
<!-- PuzzleModule -->
<g id="node13" class="node">
<title>PuzzleModule</title>
<polygon fill="#8dd3c7" stroke="black" points="1781.37,-152.8 1778.37,-156.8 1757.37,-156.8 1754.37,-152.8 1684.63,-152.8 1684.63,-116.8 1781.37,-116.8 1781.37,-152.8"/>
<text text-anchor="middle" x="1733" y="-130.6" font-family="Times,serif" font-size="14.00">PuzzleModule</text>
</g>
<!-- PuzzleModule&#45;&gt;AppModule -->
<g id="edge12" class="edge">
<title>PuzzleModule&#45;&gt;AppModule</title>
<path fill="none" stroke="black" d="M1733,-153.05C1733,-175.82 1733,-211.8 1733,-211.8 1733,-211.8 983.94,-211.8 983.94,-211.8"/>
<polygon fill="black" stroke="black" points="983.94,-208.3 973.94,-211.8 983.94,-215.3 983.94,-208.3"/>
</g>
<!-- PuzzleComponent -->
<g id="node15" class="node">
<title>PuzzleComponent</title>
<polygon fill="#ffffb3" stroke="black" points="1802.15,-84.8 1683.85,-84.8 1683.85,-48.8 1802.15,-48.8 1802.15,-84.8"/>
<text text-anchor="middle" x="1743" y="-62.6" font-family="Times,serif" font-size="14.00">PuzzleComponent</text>
</g>
<!-- PuzzleComponent&#45;&gt;PuzzleModule -->
<g id="edge14" class="edge">
<title>PuzzleComponent&#45;&gt;PuzzleModule</title>
<path fill="none" stroke="black" d="M1733,-85.02C1733,-85.02 1733,-106.53 1733,-106.53"/>
<polygon fill="black" stroke="black" points="1729.5,-106.53 1733,-116.53 1736.5,-106.53 1729.5,-106.53"/>
</g>
<!-- StartGameComponent -->
<g id="node16" class="node">
<title>StartGameComponent</title>
<polygon fill="#ffffb3" stroke="black" points="2262.7,-84.8 2121.3,-84.8 2121.3,-48.8 2262.7,-48.8 2262.7,-84.8"/>
<text text-anchor="middle" x="2192" y="-62.6" font-family="Times,serif" font-size="14.00">StartGameComponent</text>
</g>
<!-- StartGameModule -->
<g id="node18" class="node">
<title>StartGameModule</title>
<polygon fill="#8dd3c7" stroke="black" points="2106.92,-152.8 2103.92,-156.8 2082.92,-156.8 2079.92,-152.8 1987.08,-152.8 1987.08,-116.8 2106.92,-116.8 2106.92,-152.8"/>
<text text-anchor="middle" x="2047" y="-130.6" font-family="Times,serif" font-size="14.00">StartGameModule</text>
</g>
<!-- StartGameComponent&#45;&gt;StartGameModule -->
<g id="edge15" class="edge">
<title>StartGameComponent&#45;&gt;StartGameModule</title>
<path fill="none" stroke="black" d="M2192,-85.02C2192,-105.17 2192,-134.8 2192,-134.8 2192,-134.8 2116.81,-134.8 2116.81,-134.8"/>
<polygon fill="black" stroke="black" points="2116.81,-131.3 2106.81,-134.8 2116.81,-138.3 2116.81,-131.3"/>
</g>
<!-- TableComponent -->
<g id="node17" class="node">
<title>TableComponent</title>
<polygon fill="#ffffb3" stroke="black" points="2103.7,-84.8 1990.3,-84.8 1990.3,-48.8 2103.7,-48.8 2103.7,-84.8"/>
<text text-anchor="middle" x="2047" y="-62.6" font-family="Times,serif" font-size="14.00">TableComponent</text>
</g>
<!-- TableComponent&#45;&gt;StartGameModule -->
<g id="edge16" class="edge">
<title>TableComponent&#45;&gt;StartGameModule</title>
<path fill="none" stroke="black" d="M2047,-85.02C2047,-85.02 2047,-106.53 2047,-106.53"/>
<polygon fill="black" stroke="black" points="2043.5,-106.53 2047,-116.53 2050.5,-106.53 2043.5,-106.53"/>
</g>
<!-- UsersService -->
<g id="node19" class="node">
<title>UsersService</title>
<ellipse fill="#fdb462" stroke="black" cx="1904" cy="-66.8" rx="61.97" ry="18"/>
<text text-anchor="middle" x="1904" y="-62.6" font-family="Times,serif" font-size="14.00">UsersService</text>
</g>
<!-- UsersService&#45;&gt;StartGameModule -->
<g id="edge17" class="edge">
<title>UsersService&#45;&gt;StartGameModule</title>
<path fill="none" stroke="black" d="M1904,-85.02C1904,-105.17 1904,-134.8 1904,-134.8 1904,-134.8 1977.18,-134.8 1977.18,-134.8"/>
<polygon fill="black" stroke="black" points="1977.18,-138.3 1987.18,-134.8 1977.18,-131.3 1977.18,-138.3"/>
</g>
</g>
</svg>
