<?xml version="1.0" encoding="UTF-8" standalone="no"?>
<!DOCTYPE svg PUBLIC "-//W3C//DTD SVG 1.1//EN"
 "http://www.w3.org/Graphics/SVG/1.1/DTD/svg11.dtd">
<!-- Generated by graphviz version 5.0.0 (20220707.1540)
 -->
<!-- Title: dependencies Pages: 1 -->
<svg width="2694pt" height="323pt"
 viewBox="0.00 0.00 2694.00 322.80" xmlns="http://www.w3.org/2000/svg" xmlns:xlink="http://www.w3.org/1999/xlink">
<g id="graph0" class="graph" transform="scale(1 1) rotate(0) translate(4 318.8)">
<title>dependencies</title>
<polygon fill="white" stroke="transparent" points="-4,4 -4,-318.8 2690,-318.8 2690,4 -4,4"/>
<text text-anchor="middle" x="1343" y="-8.2" font-family="sans-serif" font-size="14.00">dependencies</text>
<g id="clust1" class="cluster">
<title>cluster_AppModule</title>
<polygon fill="none" stroke="black" stroke-dasharray="1,5" points="8,-108.8 8,-306.8 1775,-306.8 1775,-108.8 8,-108.8"/>
</g>
<g id="clust13" class="cluster">
<title>cluster_AppModule_imports</title>
<polygon fill="none" stroke="black" points="1508,-116.8 1508,-168.8 1767,-168.8 1767,-116.8 1508,-116.8"/>
</g>
<g id="clust15" class="cluster">
<title>cluster_AppModule_bootstrap</title>
<polygon fill="none" stroke="black" points="857,-246.8 857,-298.8 981,-298.8 981,-246.8 857,-246.8"/>
</g>
<g id="clust2" class="cluster">
<title>cluster_AppModule_declarations</title>
<polygon fill="none" stroke="black" points="16,-116.8 16,-168.8 1500,-168.8 1500,-116.8 16,-116.8"/>
</g>
<g id="clust29" class="cluster">
<title>cluster_DeaModule</title>
<polygon fill="none" stroke="black" stroke-dasharray="1,5" points="1783,-32.8 1783,-168.8 2217,-168.8 2217,-32.8 1783,-32.8"/>
</g>
<g id="clust30" class="cluster">
<title>cluster_DeaModule_declarations</title>
<polygon fill="none" stroke="black" points="1927,-40.8 1927,-92.8 2209,-92.8 2209,-40.8 1927,-40.8"/>
</g>
<g id="clust36" class="cluster">
<title>cluster_DeaModule_providers</title>
<polygon fill="none" stroke="black" points="1791,-40.8 1791,-92.8 1919,-92.8 1919,-40.8 1791,-40.8"/>
</g>
<g id="clust37" class="cluster">
<title>cluster_PuzzleModule</title>
<polygon fill="none" stroke="black" stroke-dasharray="1,5" points="1489,-32.8 1489,-100.8 1639,-100.8 1639,-32.8 1489,-32.8"/>
</g>
<g id="clust38" class="cluster">
<title>cluster_PuzzleModule_declarations</title>
<polygon fill="none" stroke="black" points="1497,-40.8 1497,-92.8 1631,-92.8 1631,-40.8 1497,-40.8"/>
</g>
<g id="clust44" class="cluster">
<title>cluster_StartGameModule</title>
<polygon fill="none" stroke="black" stroke-dasharray="1,5" points="2225,-32.8 2225,-168.8 2678,-168.8 2678,-32.8 2225,-32.8"/>
</g>
<g id="clust45" class="cluster">
<title>cluster_StartGameModule_declarations</title>
<polygon fill="none" stroke="black" points="2381,-40.8 2381,-92.8 2670,-92.8 2670,-40.8 2381,-40.8"/>
</g>
<g id="clust51" class="cluster">
<title>cluster_StartGameModule_providers</title>
<polygon fill="none" stroke="black" points="2233,-40.8 2233,-92.8 2373,-92.8 2373,-40.8 2233,-40.8"/>
</g>
<!-- AppComponent -->
<g id="node1" class="node">
<title>AppComponent</title>
<polygon fill="#ffffb3" stroke="black" points="1491.94,-160.8 1386.06,-160.8 1386.06,-124.8 1491.94,-124.8 1491.94,-160.8"/>
<text text-anchor="middle" x="1439" y="-138.6" font-family="Times,serif" font-size="14.00">AppComponent</text>
</g>
<!-- AppModule -->
<g id="node11" class="node">
<title>AppModule</title>
<polygon fill="#8dd3c7" stroke="black" points="960.66,-225.8 957.66,-229.8 936.66,-229.8 933.66,-225.8 877.34,-225.8 877.34,-189.8 960.66,-189.8 960.66,-225.8"/>
<text text-anchor="middle" x="919" y="-203.6" font-family="Times,serif" font-size="14.00">AppModule</text>
</g>
<!-- AppComponent&#45;&gt;AppModule -->
<g id="edge1" class="edge">
<title>AppComponent&#45;&gt;AppModule</title>
<path fill="none" stroke="black" d="M1439,-160.91C1439,-180.14 1439,-207.8 1439,-207.8 1439,-207.8 970.67,-207.8 970.67,-207.8"/>
<polygon fill="black" stroke="black" points="970.67,-204.3 960.67,-207.8 970.67,-211.3 970.67,-204.3"/>
</g>
<!-- DialogComponent -->
<g id="node2" class="node">
<title>DialogComponent</title>
<polygon fill="#ffffb3" stroke="black" points="1368.94,-160.8 1249.06,-160.8 1249.06,-124.8 1368.94,-124.8 1368.94,-160.8"/>
<text text-anchor="middle" x="1309" y="-138.6" font-family="Times,serif" font-size="14.00">DialogComponent</text>
</g>
<!-- DialogComponent&#45;&gt;AppModule -->
<g id="edge2" class="edge">
<title>DialogComponent&#45;&gt;AppModule</title>
<path fill="none" stroke="black" d="M1309,-160.82C1309,-178.17 1309,-201.8 1309,-201.8 1309,-201.8 970.74,-201.8 970.74,-201.8"/>
<polygon fill="black" stroke="black" points="970.74,-198.3 960.74,-201.8 970.74,-205.3 970.74,-198.3"/>
</g>
<!-- DialogDataExampleDialog -->
<g id="node3" class="node">
<title>DialogDataExampleDialog</title>
<polygon fill="#ffffb3" stroke="black" points="1231.39,-160.8 1062.61,-160.8 1062.61,-124.8 1231.39,-124.8 1231.39,-160.8"/>
<text text-anchor="middle" x="1147" y="-138.6" font-family="Times,serif" font-size="14.00">DialogDataExampleDialog</text>
</g>
<!-- DialogDataExampleDialog&#45;&gt;AppModule -->
<g id="edge3" class="edge">
<title>DialogDataExampleDialog&#45;&gt;AppModule</title>
<path fill="none" stroke="black" d="M1147,-161.04C1147,-176.37 1147,-195.8 1147,-195.8 1147,-195.8 970.82,-195.8 970.82,-195.8"/>
<polygon fill="black" stroke="black" points="970.82,-192.3 960.82,-195.8 970.82,-199.3 970.82,-192.3"/>
</g>
<!-- FooterComponent -->
<g id="node4" class="node">
<title>FooterComponent</title>
<polygon fill="#ffffb3" stroke="black" points="1044.88,-160.8 927.12,-160.8 927.12,-124.8 1044.88,-124.8 1044.88,-160.8"/>
<text text-anchor="middle" x="986" y="-138.6" font-family="Times,serif" font-size="14.00">FooterComponent</text>
</g>
<!-- FooterComponent&#45;&gt;AppModule -->
<g id="edge4" class="edge">
<title>FooterComponent&#45;&gt;AppModule</title>
<path fill="none" stroke="black" d="M943.94,-160.91C943.94,-160.91 943.94,-179.79 943.94,-179.79"/>
<polygon fill="black" stroke="black" points="940.44,-179.79 943.94,-189.79 947.44,-179.79 940.44,-179.79"/>
</g>
<!-- LoginComponent -->
<g id="node5" class="node">
<title>LoginComponent</title>
<polygon fill="#ffffb3" stroke="black" points="909.27,-160.8 794.73,-160.8 794.73,-124.8 909.27,-124.8 909.27,-160.8"/>
<text text-anchor="middle" x="852" y="-138.6" font-family="Times,serif" font-size="14.00">LoginComponent</text>
</g>
<!-- LoginComponent&#45;&gt;AppModule -->
<g id="edge5" class="edge">
<title>LoginComponent&#45;&gt;AppModule</title>
<path fill="none" stroke="black" d="M893.28,-160.91C893.28,-160.91 893.28,-179.79 893.28,-179.79"/>
<polygon fill="black" stroke="black" points="889.78,-179.79 893.28,-189.79 896.78,-179.79 889.78,-179.79"/>
</g>
<!-- MainPageComponent -->
<g id="node6" class="node">
<title>MainPageComponent</title>
<polygon fill="#ffffb3" stroke="black" points="777.1,-160.8 638.9,-160.8 638.9,-124.8 777.1,-124.8 777.1,-160.8"/>
<text text-anchor="middle" x="708" y="-138.6" font-family="Times,serif" font-size="14.00">MainPageComponent</text>
</g>
<!-- MainPageComponent&#45;&gt;AppModule -->
<g id="edge6" class="edge">
<title>MainPageComponent&#45;&gt;AppModule</title>
<path fill="none" stroke="black" d="M708,-161.04C708,-176.37 708,-195.8 708,-195.8 708,-195.8 867.31,-195.8 867.31,-195.8"/>
<polygon fill="black" stroke="black" points="867.31,-199.3 877.31,-195.8 867.31,-192.3 867.31,-199.3"/>
</g>
<!-- NavigationComponent -->
<g id="node7" class="node">
<title>NavigationComponent</title>
<polygon fill="#ffffb3" stroke="black" points="620.54,-160.8 477.46,-160.8 477.46,-124.8 620.54,-124.8 620.54,-160.8"/>
<text text-anchor="middle" x="549" y="-138.6" font-family="Times,serif" font-size="14.00">NavigationComponent</text>
</g>
<!-- NavigationComponent&#45;&gt;AppModule -->
<g id="edge7" class="edge">
<title>NavigationComponent&#45;&gt;AppModule</title>
<path fill="none" stroke="black" d="M549,-160.82C549,-178.17 549,-201.8 549,-201.8 549,-201.8 867.28,-201.8 867.28,-201.8"/>
<polygon fill="black" stroke="black" points="867.28,-205.3 877.28,-201.8 867.28,-198.3 867.28,-205.3"/>
</g>
<!-- ProfileComponent -->
<g id="node8" class="node">
<title>ProfileComponent</title>
<polygon fill="#ffffb3" stroke="black" points="459.94,-160.8 340.06,-160.8 340.06,-124.8 459.94,-124.8 459.94,-160.8"/>
<text text-anchor="middle" x="400" y="-138.6" font-family="Times,serif" font-size="14.00">ProfileComponent</text>
</g>
<!-- ProfileComponent&#45;&gt;AppModule -->
<g id="edge8" class="edge">
<title>ProfileComponent&#45;&gt;AppModule</title>
<path fill="none" stroke="black" d="M400,-160.91C400,-180.14 400,-207.8 400,-207.8 400,-207.8 866.97,-207.8 866.97,-207.8"/>
<polygon fill="black" stroke="black" points="866.97,-211.3 876.97,-207.8 866.97,-204.3 866.97,-211.3"/>
</g>
<!-- PuzzleGameComponent -->
<g id="node9" class="node">
<title>PuzzleGameComponent</title>
<polygon fill="#ffffb3" stroke="black" points="322.08,-160.8 169.92,-160.8 169.92,-124.8 322.08,-124.8 322.08,-160.8"/>
<text text-anchor="middle" x="246" y="-138.6" font-family="Times,serif" font-size="14.00">PuzzleGameComponent</text>
</g>
<!-- PuzzleGameComponent&#45;&gt;AppModule -->
<g id="edge9" class="edge">
<title>PuzzleGameComponent&#45;&gt;AppModule</title>
<path fill="none" stroke="black" d="M246,-161.08C246,-182.12 246,-213.8 246,-213.8 246,-213.8 867.16,-213.8 867.16,-213.8"/>
<polygon fill="black" stroke="black" points="867.16,-217.3 877.16,-213.8 867.16,-210.3 867.16,-217.3"/>
</g>
<!-- RegisterComponent -->
<g id="node10" class="node">
<title>RegisterComponent</title>
<polygon fill="#ffffb3" stroke="black" points="151.99,-160.8 24.01,-160.8 24.01,-124.8 151.99,-124.8 151.99,-160.8"/>
<text text-anchor="middle" x="88" y="-138.6" font-family="Times,serif" font-size="14.00">RegisterComponent</text>
</g>
<!-- RegisterComponent&#45;&gt;AppModule -->
<g id="edge10" class="edge">
<title>RegisterComponent&#45;&gt;AppModule</title>
<path fill="none" stroke="black" d="M88,-161.05C88,-183.82 88,-219.8 88,-219.8 88,-219.8 867.22,-219.8 867.22,-219.8"/>
<polygon fill="black" stroke="black" points="867.22,-223.3 877.22,-219.8 867.22,-216.3 867.22,-223.3"/>
</g>
<!-- AppComponent  -->
<g id="node14" class="node">
<title>AppComponent </title>
<polygon fill="#80b1d3" stroke="black" points="973.44,-290.8 864.56,-290.8 864.56,-254.8 973.44,-254.8 973.44,-290.8"/>
<text text-anchor="middle" x="919" y="-268.6" font-family="Times,serif" font-size="14.00">AppComponent </text>
</g>
<!-- AppModule&#45;&gt;AppComponent  -->
<g id="edge13" class="edge">
<title>AppModule&#45;&gt;AppComponent </title>
<path fill="none" stroke="black" stroke-dasharray="1,5" d="M919,-225.91C919,-225.91 919,-244.79 919,-244.79"/>
<polygon fill="black" stroke="black" points="915.5,-244.79 919,-254.79 922.5,-244.79 915.5,-244.79"/>
</g>
<!-- AppRoutingModule -->
<g id="node12" class="node">
<title>AppRoutingModule</title>
<polygon fill="#8dd3c7" stroke="black" points="1759.28,-160.8 1756.28,-164.8 1735.28,-164.8 1732.28,-160.8 1630.72,-160.8 1630.72,-124.8 1759.28,-124.8 1759.28,-160.8"/>
<text text-anchor="middle" x="1695" y="-138.6" font-family="Times,serif" font-size="14.00">AppRoutingModule</text>
</g>
<!-- AppRoutingModule&#45;&gt;AppModule -->
<g id="edge11" class="edge">
<title>AppRoutingModule&#45;&gt;AppModule</title>
<path fill="none" stroke="black" d="M1695,-161.05C1695,-183.82 1695,-219.8 1695,-219.8 1695,-219.8 970.72,-219.8 970.72,-219.8"/>
<polygon fill="black" stroke="black" points="970.72,-216.3 960.72,-219.8 970.72,-223.3 970.72,-216.3"/>
</g>
<!-- PuzzleModule -->
<g id="node13" class="node">
<title>PuzzleModule</title>
<polygon fill="#8dd3c7" stroke="black" points="1612.37,-160.8 1609.37,-164.8 1588.37,-164.8 1585.37,-160.8 1515.63,-160.8 1515.63,-124.8 1612.37,-124.8 1612.37,-160.8"/>
<text text-anchor="middle" x="1564" y="-138.6" font-family="Times,serif" font-size="14.00">PuzzleModule</text>
</g>
<!-- PuzzleModule&#45;&gt;AppModule -->
<g id="edge12" class="edge">
<title>PuzzleModule&#45;&gt;AppModule</title>
<path fill="none" stroke="black" d="M1564,-161.08C1564,-182.12 1564,-213.8 1564,-213.8 1564,-213.8 970.82,-213.8 970.82,-213.8"/>
<polygon fill="black" stroke="black" points="970.82,-210.3 960.82,-213.8 970.82,-217.3 970.82,-210.3"/>
</g>
<!-- CytoGraphComponent -->
<g id="node15" class="node">
<title>CytoGraphComponent</title>
<polygon fill="#ffffb3" stroke="black" points="2200.55,-84.8 2057.45,-84.8 2057.45,-48.8 2200.55,-48.8 2200.55,-84.8"/>
<text text-anchor="middle" x="2129" y="-62.6" font-family="Times,serif" font-size="14.00">CytoGraphComponent</text>
</g>
<!-- DeaModule -->
<g id="node17" class="node">
<title>DeaModule</title>
<polygon fill="#8dd3c7" stroke="black" points="2028.09,-160.8 2025.09,-164.8 2004.09,-164.8 2001.09,-160.8 1945.91,-160.8 1945.91,-124.8 2028.09,-124.8 2028.09,-160.8"/>
<text text-anchor="middle" x="1987" y="-138.6" font-family="Times,serif" font-size="14.00">DeaModule</text>
</g>
<!-- CytoGraphComponent&#45;&gt;DeaModule -->
<g id="edge14" class="edge">
<title>CytoGraphComponent&#45;&gt;DeaModule</title>
<path fill="none" stroke="black" d="M2129,-85C2129,-109.16 2129,-148.8 2129,-148.8 2129,-148.8 2038.07,-148.8 2038.07,-148.8"/>
<polygon fill="black" stroke="black" points="2038.07,-145.3 2028.07,-148.8 2038.07,-152.3 2038.07,-145.3"/>
</g>
<!-- DeaComponent -->
<g id="node16" class="node">
<title>DeaComponent</title>
<polygon fill="#ffffb3" stroke="black" points="2038.87,-84.8 1935.13,-84.8 1935.13,-48.8 2038.87,-48.8 2038.87,-84.8"/>
<text text-anchor="middle" x="1987" y="-62.6" font-family="Times,serif" font-size="14.00">DeaComponent</text>
</g>
<!-- DeaComponent&#45;&gt;DeaModule -->
<g id="edge15" class="edge">
<title>DeaComponent&#45;&gt;DeaModule</title>
<path fill="none" stroke="black" d="M1987,-84.81C1987,-84.81 1987,-114.65 1987,-114.65"/>
<polygon fill="black" stroke="black" points="1983.5,-114.65 1987,-124.65 1990.5,-114.65 1983.5,-114.65"/>
</g>
<!-- DeaService -->
<g id="node18" class="node">
<title>DeaService</title>
<ellipse fill="#fdb462" stroke="black" cx="1855" cy="-66.8" rx="55.58" ry="18"/>
<text text-anchor="middle" x="1855" y="-62.6" font-family="Times,serif" font-size="14.00">DeaService</text>
</g>
<!-- DeaService&#45;&gt;DeaModule -->
<g id="edge16" class="edge">
<title>DeaService&#45;&gt;DeaModule</title>
<path fill="none" stroke="black" d="M1855,-84.81C1855,-107.29 1855,-142.8 1855,-142.8 1855,-142.8 1935.6,-142.8 1935.6,-142.8"/>
<polygon fill="black" stroke="black" points="1935.6,-146.3 1945.6,-142.8 1935.6,-139.3 1935.6,-146.3"/>
</g>
<!-- PuzzleComponent -->
<g id="node19" class="node">
<title>PuzzleComponent</title>
<polygon fill="#ffffb3" stroke="black" points="1623.15,-84.8 1504.85,-84.8 1504.85,-48.8 1623.15,-48.8 1623.15,-84.8"/>
<text text-anchor="middle" x="1564" y="-62.6" font-family="Times,serif" font-size="14.00">PuzzleComponent</text>
</g>
<!-- PuzzleComponent&#45;&gt;PuzzleModule -->
<g id="edge17" class="edge">
<title>PuzzleComponent&#45;&gt;PuzzleModule</title>
<path fill="none" stroke="black" d="M1564,-84.81C1564,-84.81 1564,-114.65 1564,-114.65"/>
<polygon fill="black" stroke="black" points="1560.5,-114.65 1564,-124.65 1567.5,-114.65 1560.5,-114.65"/>
</g>
<!-- StartGameComponent -->
<g id="node20" class="node">
<title>StartGameComponent</title>
<polygon fill="#ffffb3" stroke="black" points="2661.7,-84.8 2520.3,-84.8 2520.3,-48.8 2661.7,-48.8 2661.7,-84.8"/>
<text text-anchor="middle" x="2591" y="-62.6" font-family="Times,serif" font-size="14.00">StartGameComponent</text>
</g>
<!-- StartGameModule -->
<g id="node22" class="node">
<title>StartGameModule</title>
<polygon fill="#8dd3c7" stroke="black" points="2505.92,-160.8 2502.92,-164.8 2481.92,-164.8 2478.92,-160.8 2386.08,-160.8 2386.08,-124.8 2505.92,-124.8 2505.92,-160.8"/>
<text text-anchor="middle" x="2446" y="-138.6" font-family="Times,serif" font-size="14.00">StartGameModule</text>
</g>
<!-- StartGameComponent&#45;&gt;StartGameModule -->
<g id="edge18" class="edge">
<title>StartGameComponent&#45;&gt;StartGameModule</title>
<path fill="none" stroke="black" d="M2591,-84.81C2591,-107.29 2591,-142.8 2591,-142.8 2591,-142.8 2515.81,-142.8 2515.81,-142.8"/>
<polygon fill="black" stroke="black" points="2515.81,-139.3 2505.81,-142.8 2515.81,-146.3 2515.81,-139.3"/>
</g>
<!-- TableComponent -->
<g id="node21" class="node">
<title>TableComponent</title>
<polygon fill="#ffffb3" stroke="black" points="2502.7,-84.8 2389.3,-84.8 2389.3,-48.8 2502.7,-48.8 2502.7,-84.8"/>
<text text-anchor="middle" x="2446" y="-62.6" font-family="Times,serif" font-size="14.00">TableComponent</text>
</g>
<!-- TableComponent&#45;&gt;StartGameModule -->
<g id="edge19" class="edge">
<title>TableComponent&#45;&gt;StartGameModule</title>
<path fill="none" stroke="black" d="M2446,-84.81C2446,-84.81 2446,-114.65 2446,-114.65"/>
<polygon fill="black" stroke="black" points="2442.5,-114.65 2446,-124.65 2449.5,-114.65 2442.5,-114.65"/>
</g>
<!-- UsersService -->
<g id="node23" class="node">
<title>UsersService</title>
<ellipse fill="#fdb462" stroke="black" cx="2303" cy="-66.8" rx="61.97" ry="18"/>
<text text-anchor="middle" x="2303" y="-62.6" font-family="Times,serif" font-size="14.00">UsersService</text>
</g>
<!-- UsersService&#45;&gt;StartGameModule -->
<g id="edge20" class="edge">
<title>UsersService&#45;&gt;StartGameModule</title>
<path fill="none" stroke="black" d="M2303,-84.83C2303,-105.57 2303,-136.8 2303,-136.8 2303,-136.8 2376.18,-136.8 2376.18,-136.8"/>
<polygon fill="black" stroke="black" points="2376.18,-140.3 2386.18,-136.8 2376.18,-133.3 2376.18,-140.3"/>
</g>
</g>
</svg>
