<?xml version="1.0" encoding="UTF-8" standalone="no"?>
<!DOCTYPE svg PUBLIC "-//W3C//DTD SVG 1.1//EN"
 "http://www.w3.org/Graphics/SVG/1.1/DTD/svg11.dtd">
<!-- Generated by graphviz version 5.0.0 (20220707.1540)
 -->
<!-- Title: dependencies Pages: 1 -->
<svg width="2137pt" height="247pt"
 viewBox="0.00 0.00 2137.00 246.80" xmlns="http://www.w3.org/2000/svg" xmlns:xlink="http://www.w3.org/1999/xlink">
<g id="graph0" class="graph" transform="scale(1 1) rotate(0) translate(4 242.8)">
<title>dependencies</title>
<polygon fill="white" stroke="transparent" points="-4,4 -4,-242.8 2133,-242.8 2133,4 -4,4"/>
<text text-anchor="middle" x="1064.5" y="-8.2" font-family="sans-serif" font-size="14.00">dependencies</text>
<g id="clust1" class="cluster">
<title>cluster_AppModule</title>
<polygon fill="none" stroke="black" stroke-dasharray="1,5" points="8,-32.8 8,-230.8 1660,-230.8 1660,-32.8 8,-32.8"/>
</g>
<g id="clust13" class="cluster">
<title>cluster_AppModule_imports</title>
<polygon fill="none" stroke="black" points="1508,-40.8 1508,-92.8 1652,-92.8 1652,-40.8 1508,-40.8"/>
</g>
<g id="clust15" class="cluster">
<title>cluster_AppModule_bootstrap</title>
<polygon fill="none" stroke="black" points="790,-170.8 790,-222.8 914,-222.8 914,-170.8 790,-170.8"/>
</g>
<g id="clust2" class="cluster">
<title>cluster_AppModule_declarations</title>
<polygon fill="none" stroke="black" points="16,-40.8 16,-92.8 1500,-92.8 1500,-40.8 16,-40.8"/>
</g>
<g id="clust29" class="cluster">
<title>cluster_StartGameModule</title>
<polygon fill="none" stroke="black" stroke-dasharray="1,5" points="1668,-32.8 1668,-157.8 2121,-157.8 2121,-32.8 1668,-32.8"/>
</g>
<g id="clust30" class="cluster">
<title>cluster_StartGameModule_declarations</title>
<polygon fill="none" stroke="black" points="1824,-40.8 1824,-92.8 2113,-92.8 2113,-40.8 1824,-40.8"/>
</g>
<g id="clust36" class="cluster">
<title>cluster_StartGameModule_providers</title>
<polygon fill="none" stroke="black" points="1676,-40.8 1676,-92.8 1816,-92.8 1816,-40.8 1676,-40.8"/>
</g>
<!-- AppComponent -->
<g id="node1" class="node">
<title>AppComponent</title>
<polygon fill="#ffffb3" stroke="black" points="1491.94,-84.8 1386.06,-84.8 1386.06,-48.8 1491.94,-48.8 1491.94,-84.8"/>
<text text-anchor="middle" x="1439" y="-62.6" font-family="Times,serif" font-size="14.00">AppComponent</text>
</g>
<!-- AppModule -->
<g id="node11" class="node">
<title>AppModule</title>
<polygon fill="#8dd3c7" stroke="black" points="893.66,-149.8 890.66,-153.8 869.66,-153.8 866.66,-149.8 810.34,-149.8 810.34,-113.8 893.66,-113.8 893.66,-149.8"/>
<text text-anchor="middle" x="852" y="-127.6" font-family="Times,serif" font-size="14.00">AppModule</text>
</g>
<!-- AppComponent&#45;&gt;AppModule -->
<g id="edge1" class="edge">
<title>AppComponent&#45;&gt;AppModule</title>
<path fill="none" stroke="black" d="M1439,-84.84C1439,-106.46 1439,-139.8 1439,-139.8 1439,-139.8 903.75,-139.8 903.75,-139.8"/>
<polygon fill="black" stroke="black" points="903.75,-136.3 893.75,-139.8 903.74,-143.3 903.75,-136.3"/>
</g>
<!-- DialogComponent -->
<g id="node2" class="node">
<title>DialogComponent</title>
<polygon fill="#ffffb3" stroke="black" points="1368.94,-84.8 1249.06,-84.8 1249.06,-48.8 1368.94,-48.8 1368.94,-84.8"/>
<text text-anchor="middle" x="1309" y="-62.6" font-family="Times,serif" font-size="14.00">DialogComponent</text>
</g>
<!-- DialogComponent&#45;&gt;AppModule -->
<g id="edge2" class="edge">
<title>DialogComponent&#45;&gt;AppModule</title>
<path fill="none" stroke="black" d="M1309,-85.02C1309,-105.17 1309,-134.8 1309,-134.8 1309,-134.8 903.77,-134.8 903.77,-134.8"/>
<polygon fill="black" stroke="black" points="903.77,-131.3 893.77,-134.8 903.77,-138.3 903.77,-131.3"/>
</g>
<!-- DialogDataExampleDialog -->
<g id="node3" class="node">
<title>DialogDataExampleDialog</title>
<polygon fill="#ffffb3" stroke="black" points="1231.39,-84.8 1062.61,-84.8 1062.61,-48.8 1231.39,-48.8 1231.39,-84.8"/>
<text text-anchor="middle" x="1147" y="-62.6" font-family="Times,serif" font-size="14.00">DialogDataExampleDialog</text>
</g>
<!-- DialogDataExampleDialog&#45;&gt;AppModule -->
<g id="edge3" class="edge">
<title>DialogDataExampleDialog&#45;&gt;AppModule</title>
<path fill="none" stroke="black" d="M1147,-85.02C1147,-103.63 1147,-129.8 1147,-129.8 1147,-129.8 903.95,-129.8 903.95,-129.8"/>
<polygon fill="black" stroke="black" points="903.95,-126.3 893.95,-129.8 903.95,-133.3 903.95,-126.3"/>
</g>
<!-- FooterComponent -->
<g id="node4" class="node">
<title>FooterComponent</title>
<polygon fill="#ffffb3" stroke="black" points="1044.88,-84.8 927.12,-84.8 927.12,-48.8 1044.88,-48.8 1044.88,-84.8"/>
<text text-anchor="middle" x="986" y="-62.6" font-family="Times,serif" font-size="14.00">FooterComponent</text>
</g>
<!-- FooterComponent&#45;&gt;AppModule -->
<g id="edge4" class="edge">
<title>FooterComponent&#45;&gt;AppModule</title>
<path fill="none" stroke="black" d="M986,-84.83C986,-101.86 986,-124.8 986,-124.8 986,-124.8 903.66,-124.8 903.66,-124.8"/>
<polygon fill="black" stroke="black" points="903.66,-121.3 893.66,-124.8 903.66,-128.3 903.66,-121.3"/>
</g>
<!-- LoginComponent -->
<g id="node5" class="node">
<title>LoginComponent</title>
<polygon fill="#ffffb3" stroke="black" points="909.27,-84.8 794.73,-84.8 794.73,-48.8 909.27,-48.8 909.27,-84.8"/>
<text text-anchor="middle" x="852" y="-62.6" font-family="Times,serif" font-size="14.00">LoginComponent</text>
</g>
<!-- LoginComponent&#45;&gt;AppModule -->
<g id="edge5" class="edge">
<title>LoginComponent&#45;&gt;AppModule</title>
<path fill="none" stroke="black" d="M852,-84.91C852,-84.91 852,-103.79 852,-103.79"/>
<polygon fill="black" stroke="black" points="848.5,-103.79 852,-113.79 855.5,-103.79 848.5,-103.79"/>
</g>
<!-- MainPageComponent -->
<g id="node6" class="node">
<title>MainPageComponent</title>
<polygon fill="#ffffb3" stroke="black" points="777.1,-84.8 638.9,-84.8 638.9,-48.8 777.1,-48.8 777.1,-84.8"/>
<text text-anchor="middle" x="708" y="-62.6" font-family="Times,serif" font-size="14.00">MainPageComponent</text>
</g>
<!-- MainPageComponent&#45;&gt;AppModule -->
<g id="edge6" class="edge">
<title>MainPageComponent&#45;&gt;AppModule</title>
<path fill="none" stroke="black" d="M708,-85.04C708,-100.37 708,-119.8 708,-119.8 708,-119.8 799.96,-119.8 799.96,-119.8"/>
<polygon fill="black" stroke="black" points="799.96,-123.3 809.96,-119.8 799.96,-116.3 799.96,-123.3"/>
</g>
<!-- NavigationComponent -->
<g id="node7" class="node">
<title>NavigationComponent</title>
<polygon fill="#ffffb3" stroke="black" points="620.54,-84.8 477.46,-84.8 477.46,-48.8 620.54,-48.8 620.54,-84.8"/>
<text text-anchor="middle" x="549" y="-62.6" font-family="Times,serif" font-size="14.00">NavigationComponent</text>
</g>
<!-- NavigationComponent&#45;&gt;AppModule -->
<g id="edge7" class="edge">
<title>NavigationComponent&#45;&gt;AppModule</title>
<path fill="none" stroke="black" d="M549,-84.82C549,-102.17 549,-125.8 549,-125.8 549,-125.8 800.19,-125.8 800.19,-125.8"/>
<polygon fill="black" stroke="black" points="800.19,-129.3 810.19,-125.8 800.19,-122.3 800.19,-129.3"/>
</g>
<!-- ProfileComponent -->
<g id="node8" class="node">
<title>ProfileComponent</title>
<polygon fill="#ffffb3" stroke="black" points="459.94,-84.8 340.06,-84.8 340.06,-48.8 459.94,-48.8 459.94,-84.8"/>
<text text-anchor="middle" x="400" y="-62.6" font-family="Times,serif" font-size="14.00">ProfileComponent</text>
</g>
<!-- ProfileComponent&#45;&gt;AppModule -->
<g id="edge8" class="edge">
<title>ProfileComponent&#45;&gt;AppModule</title>
<path fill="none" stroke="black" d="M400,-84.91C400,-104.14 400,-131.8 400,-131.8 400,-131.8 800.29,-131.8 800.29,-131.8"/>
<polygon fill="black" stroke="black" points="800.29,-135.3 810.29,-131.8 800.29,-128.3 800.29,-135.3"/>
</g>
<!-- PuzzleGameComponent -->
<g id="node9" class="node">
<title>PuzzleGameComponent</title>
<polygon fill="#ffffb3" stroke="black" points="322.08,-84.8 169.92,-84.8 169.92,-48.8 322.08,-48.8 322.08,-84.8"/>
<text text-anchor="middle" x="246" y="-62.6" font-family="Times,serif" font-size="14.00">PuzzleGameComponent</text>
</g>
<!-- PuzzleGameComponent&#45;&gt;AppModule -->
<g id="edge9" class="edge">
<title>PuzzleGameComponent&#45;&gt;AppModule</title>
<path fill="none" stroke="black" d="M246,-85.08C246,-106.12 246,-137.8 246,-137.8 246,-137.8 799.87,-137.8 799.87,-137.8"/>
<polygon fill="black" stroke="black" points="799.87,-141.3 809.87,-137.8 799.87,-134.3 799.87,-141.3"/>
</g>
<!-- RegisterComponent -->
<g id="node10" class="node">
<title>RegisterComponent</title>
<polygon fill="#ffffb3" stroke="black" points="151.99,-84.8 24.01,-84.8 24.01,-48.8 151.99,-48.8 151.99,-84.8"/>
<text text-anchor="middle" x="88" y="-62.6" font-family="Times,serif" font-size="14.00">RegisterComponent</text>
</g>
<!-- RegisterComponent&#45;&gt;AppModule -->
<g id="edge10" class="edge">
<title>RegisterComponent&#45;&gt;AppModule</title>
<path fill="none" stroke="black" d="M88,-85.05C88,-107.82 88,-143.8 88,-143.8 88,-143.8 800.11,-143.8 800.11,-143.8"/>
<polygon fill="black" stroke="black" points="800.11,-147.3 810.11,-143.8 800.11,-140.3 800.11,-147.3"/>
</g>
<!-- AppComponent  -->
<g id="node13" class="node">
<title>AppComponent </title>
<polygon fill="#80b1d3" stroke="black" points="906.44,-214.8 797.56,-214.8 797.56,-178.8 906.44,-178.8 906.44,-214.8"/>
<text text-anchor="middle" x="852" y="-192.6" font-family="Times,serif" font-size="14.00">AppComponent </text>
</g>
<!-- AppModule&#45;&gt;AppComponent  -->
<g id="edge12" class="edge">
<title>AppModule&#45;&gt;AppComponent </title>
<path fill="none" stroke="black" stroke-dasharray="1,5" d="M852,-149.91C852,-149.91 852,-168.79 852,-168.79"/>
<polygon fill="black" stroke="black" points="848.5,-168.79 852,-178.79 855.5,-168.79 848.5,-168.79"/>
</g>
<!-- AppRoutingModule -->
<g id="node12" class="node">
<title>AppRoutingModule</title>
<polygon fill="#8dd3c7" stroke="black" points="1644.28,-84.8 1641.28,-88.8 1620.28,-88.8 1617.28,-84.8 1515.72,-84.8 1515.72,-48.8 1644.28,-48.8 1644.28,-84.8"/>
<text text-anchor="middle" x="1580" y="-62.6" font-family="Times,serif" font-size="14.00">AppRoutingModule</text>
</g>
<!-- AppRoutingModule&#45;&gt;AppModule -->
<g id="edge11" class="edge">
<title>AppRoutingModule&#45;&gt;AppModule</title>
<path fill="none" stroke="black" d="M1580,-84.89C1580,-107.93 1580,-144.8 1580,-144.8 1580,-144.8 903.76,-144.8 903.76,-144.8"/>
<polygon fill="black" stroke="black" points="903.76,-141.3 893.76,-144.8 903.76,-148.3 903.76,-141.3"/>
</g>
<!-- StartGameComponent -->
<g id="node14" class="node">
<title>StartGameComponent</title>
<polygon fill="#ffffb3" stroke="black" points="2104.7,-84.8 1963.3,-84.8 1963.3,-48.8 2104.7,-48.8 2104.7,-84.8"/>
<text text-anchor="middle" x="2034" y="-62.6" font-family="Times,serif" font-size="14.00">StartGameComponent</text>
</g>
<!-- StartGameModule -->
<g id="node16" class="node">
<title>StartGameModule</title>
<polygon fill="#8dd3c7" stroke="black" points="1948.92,-149.8 1945.92,-153.8 1924.92,-153.8 1921.92,-149.8 1829.08,-149.8 1829.08,-113.8 1948.92,-113.8 1948.92,-149.8"/>
<text text-anchor="middle" x="1889" y="-127.6" font-family="Times,serif" font-size="14.00">StartGameModule</text>
</g>
<!-- StartGameComponent&#45;&gt;StartGameModule -->
<g id="edge13" class="edge">
<title>StartGameComponent&#45;&gt;StartGameModule</title>
<path fill="none" stroke="black" d="M2034,-84.91C2034,-104.14 2034,-131.8 2034,-131.8 2034,-131.8 1958.81,-131.8 1958.81,-131.8"/>
<polygon fill="black" stroke="black" points="1958.81,-128.3 1948.81,-131.8 1958.81,-135.3 1958.81,-128.3"/>
</g>
<!-- TableComponent -->
<g id="node15" class="node">
<title>TableComponent</title>
<polygon fill="#ffffb3" stroke="black" points="1945.7,-84.8 1832.3,-84.8 1832.3,-48.8 1945.7,-48.8 1945.7,-84.8"/>
<text text-anchor="middle" x="1889" y="-62.6" font-family="Times,serif" font-size="14.00">TableComponent</text>
</g>
<!-- TableComponent&#45;&gt;StartGameModule -->
<g id="edge14" class="edge">
<title>TableComponent&#45;&gt;StartGameModule</title>
<path fill="none" stroke="black" d="M1889,-84.91C1889,-84.91 1889,-103.79 1889,-103.79"/>
<polygon fill="black" stroke="black" points="1885.5,-103.79 1889,-113.79 1892.5,-103.79 1885.5,-103.79"/>
</g>
<!-- UsersService -->
<g id="node17" class="node">
<title>UsersService</title>
<ellipse fill="#fdb462" stroke="black" cx="1746" cy="-66.8" rx="61.97" ry="18"/>
<text text-anchor="middle" x="1746" y="-62.6" font-family="Times,serif" font-size="14.00">UsersService</text>
</g>
<!-- UsersService&#45;&gt;StartGameModule -->
<g id="edge15" class="edge">
<title>UsersService&#45;&gt;StartGameModule</title>
<path fill="none" stroke="black" d="M1746,-85.04C1746,-100.37 1746,-119.8 1746,-119.8 1746,-119.8 1819.18,-119.8 1819.18,-119.8"/>
<polygon fill="black" stroke="black" points="1819.18,-123.3 1829.18,-119.8 1819.18,-116.3 1819.18,-123.3"/>
</g>
</g>
</svg>
