<?xml version="1.0" encoding="UTF-8" standalone="no"?>
<!DOCTYPE svg PUBLIC "-//W3C//DTD SVG 1.1//EN"
 "http://www.w3.org/Graphics/SVG/1.1/DTD/svg11.dtd">
<!-- Generated by graphviz version 5.0.0 (20220707.1540)
 -->
<!-- Title: dependencies Pages: 1 -->
<svg width="1698pt" height="247pt"
 viewBox="0.00 0.00 1698.00 246.80" xmlns="http://www.w3.org/2000/svg" xmlns:xlink="http://www.w3.org/1999/xlink">
<g id="graph0" class="graph" transform="scale(1 1) rotate(0) translate(4 242.8)">
<title>dependencies</title>
<polygon fill="white" stroke="transparent" points="-4,4 -4,-242.8 1694,-242.8 1694,4 -4,4"/>
<text text-anchor="middle" x="845" y="-8.2" font-family="sans-serif" font-size="14.00">dependencies</text>
<g id="clust1" class="cluster">
<title>cluster_AppModule</title>
<polygon fill="none" stroke="black" stroke-dasharray="1,5" points="8,-32.8 8,-230.8 1221,-230.8 1221,-32.8 8,-32.8"/>
</g>
<g id="clust2" class="cluster">
<title>cluster_AppModule_declarations</title>
<polygon fill="none" stroke="black" points="168,-40.8 168,-92.8 1213,-92.8 1213,-40.8 168,-40.8"/>
</g>
<g id="clust10" class="cluster">
<title>cluster_AppModule_imports</title>
<polygon fill="none" stroke="black" points="16,-40.8 16,-92.8 160,-92.8 160,-40.8 16,-40.8"/>
</g>
<g id="clust12" class="cluster">
<title>cluster_AppModule_bootstrap</title>
<polygon fill="none" stroke="black" points="566,-170.8 566,-222.8 690,-222.8 690,-170.8 566,-170.8"/>
</g>
<g id="clust20" class="cluster">
<title>cluster_StartGameModule</title>
<polygon fill="none" stroke="black" stroke-dasharray="1,5" points="1229,-32.8 1229,-157.8 1682,-157.8 1682,-32.8 1229,-32.8"/>
</g>
<g id="clust21" class="cluster">
<title>cluster_StartGameModule_declarations</title>
<polygon fill="none" stroke="black" points="1385,-40.8 1385,-92.8 1674,-92.8 1674,-40.8 1385,-40.8"/>
</g>
<g id="clust27" class="cluster">
<title>cluster_StartGameModule_providers</title>
<polygon fill="none" stroke="black" points="1237,-40.8 1237,-92.8 1377,-92.8 1377,-40.8 1237,-40.8"/>
</g>
<!-- AppComponent -->
<g id="node1" class="node">
<title>AppComponent</title>
<polygon fill="#ffffb3" stroke="black" points="1204.94,-84.8 1099.06,-84.8 1099.06,-48.8 1204.94,-48.8 1204.94,-84.8"/>
<text text-anchor="middle" x="1152" y="-62.6" font-family="Times,serif" font-size="14.00">AppComponent</text>
</g>
<!-- AppModule -->
<g id="node8" class="node">
<title>AppModule</title>
<polygon fill="#8dd3c7" stroke="black" points="669.66,-149.8 666.66,-153.8 645.66,-153.8 642.66,-149.8 586.34,-149.8 586.34,-113.8 669.66,-113.8 669.66,-149.8"/>
<text text-anchor="middle" x="628" y="-127.6" font-family="Times,serif" font-size="14.00">AppModule</text>
</g>
<!-- AppComponent&#45;&gt;AppModule -->
<g id="edge1" class="edge">
<title>AppComponent&#45;&gt;AppModule</title>
<path fill="none" stroke="black" d="M1152,-84.93C1152,-105.37 1152,-135.8 1152,-135.8 1152,-135.8 680,-135.8 680,-135.8"/>
<polygon fill="black" stroke="black" points="680,-132.3 670,-135.8 680,-139.3 680,-132.3"/>
</g>
<!-- DialogDataExampleDialog -->
<g id="node2" class="node">
<title>DialogDataExampleDialog</title>
<polygon fill="#ffffb3" stroke="black" points="1081.39,-84.8 912.61,-84.8 912.61,-48.8 1081.39,-48.8 1081.39,-84.8"/>
<text text-anchor="middle" x="997" y="-62.6" font-family="Times,serif" font-size="14.00">DialogDataExampleDialog</text>
</g>
<!-- DialogDataExampleDialog&#45;&gt;AppModule -->
<g id="edge2" class="edge">
<title>DialogDataExampleDialog&#45;&gt;AppModule</title>
<path fill="none" stroke="black" d="M997,-85.07C997,-103.36 997,-128.8 997,-128.8 997,-128.8 679.97,-128.8 679.97,-128.8"/>
<polygon fill="black" stroke="black" points="679.97,-125.3 669.97,-128.8 679.97,-132.3 679.97,-125.3"/>
</g>
<!-- FooterComponent -->
<g id="node3" class="node">
<title>FooterComponent</title>
<polygon fill="#ffffb3" stroke="black" points="894.88,-84.8 777.12,-84.8 777.12,-48.8 894.88,-48.8 894.88,-84.8"/>
<text text-anchor="middle" x="836" y="-62.6" font-family="Times,serif" font-size="14.00">FooterComponent</text>
</g>
<!-- FooterComponent&#45;&gt;AppModule -->
<g id="edge3" class="edge">
<title>FooterComponent&#45;&gt;AppModule</title>
<path fill="none" stroke="black" d="M836,-84.81C836,-100.85 836,-121.8 836,-121.8 836,-121.8 680.09,-121.8 680.09,-121.8"/>
<polygon fill="black" stroke="black" points="680.09,-118.3 670.09,-121.8 680.09,-125.3 680.09,-118.3"/>
</g>
<!-- LoginComponent -->
<g id="node4" class="node">
<title>LoginComponent</title>
<polygon fill="#ffffb3" stroke="black" points="759.27,-84.8 644.73,-84.8 644.73,-48.8 759.27,-48.8 759.27,-84.8"/>
<text text-anchor="middle" x="702" y="-62.6" font-family="Times,serif" font-size="14.00">LoginComponent</text>
</g>
<!-- LoginComponent&#45;&gt;AppModule -->
<g id="edge4" class="edge">
<title>LoginComponent&#45;&gt;AppModule</title>
<path fill="none" stroke="black" d="M657.22,-84.91C657.22,-84.91 657.22,-103.79 657.22,-103.79"/>
<polygon fill="black" stroke="black" points="653.72,-103.79 657.22,-113.79 660.72,-103.79 653.72,-103.79"/>
</g>
<!-- NavigationComponent -->
<g id="node5" class="node">
<title>NavigationComponent</title>
<polygon fill="#ffffb3" stroke="black" points="626.54,-84.8 483.46,-84.8 483.46,-48.8 626.54,-48.8 626.54,-84.8"/>
<text text-anchor="middle" x="555" y="-62.6" font-family="Times,serif" font-size="14.00">NavigationComponent</text>
</g>
<!-- NavigationComponent&#45;&gt;AppModule -->
<g id="edge5" class="edge">
<title>NavigationComponent&#45;&gt;AppModule</title>
<path fill="none" stroke="black" d="M606.47,-84.91C606.47,-84.91 606.47,-103.79 606.47,-103.79"/>
<polygon fill="black" stroke="black" points="602.97,-103.79 606.47,-113.79 609.97,-103.79 602.97,-103.79"/>
</g>
<!-- ProfileComponent -->
<g id="node6" class="node">
<title>ProfileComponent</title>
<polygon fill="#ffffb3" stroke="black" points="465.94,-84.8 346.06,-84.8 346.06,-48.8 465.94,-48.8 465.94,-84.8"/>
<text text-anchor="middle" x="406" y="-62.6" font-family="Times,serif" font-size="14.00">ProfileComponent</text>
</g>
<!-- ProfileComponent&#45;&gt;AppModule -->
<g id="edge6" class="edge">
<title>ProfileComponent&#45;&gt;AppModule</title>
<path fill="none" stroke="black" d="M406,-84.83C406,-101.2 406,-122.8 406,-122.8 406,-122.8 576.24,-122.8 576.24,-122.8"/>
<polygon fill="black" stroke="black" points="576.24,-126.3 586.24,-122.8 576.24,-119.3 576.24,-126.3"/>
</g>
<!-- PuzzleGameComponent -->
<g id="node7" class="node">
<title>PuzzleGameComponent</title>
<polygon fill="#ffffb3" stroke="black" points="328.08,-84.8 175.92,-84.8 175.92,-48.8 328.08,-48.8 328.08,-84.8"/>
<text text-anchor="middle" x="252" y="-62.6" font-family="Times,serif" font-size="14.00">PuzzleGameComponent</text>
</g>
<!-- PuzzleGameComponent&#45;&gt;AppModule -->
<g id="edge7" class="edge">
<title>PuzzleGameComponent&#45;&gt;AppModule</title>
<path fill="none" stroke="black" d="M252,-84.91C252,-104.14 252,-131.8 252,-131.8 252,-131.8 576.32,-131.8 576.32,-131.8"/>
<polygon fill="black" stroke="black" points="576.32,-135.3 586.32,-131.8 576.32,-128.3 576.32,-135.3"/>
</g>
<!-- AppComponent  -->
<g id="node10" class="node">
<title>AppComponent </title>
<polygon fill="#80b1d3" stroke="black" points="682.44,-214.8 573.56,-214.8 573.56,-178.8 682.44,-178.8 682.44,-214.8"/>
<text text-anchor="middle" x="628" y="-192.6" font-family="Times,serif" font-size="14.00">AppComponent </text>
</g>
<!-- AppModule&#45;&gt;AppComponent  -->
<g id="edge9" class="edge">
<title>AppModule&#45;&gt;AppComponent </title>
<path fill="none" stroke="black" stroke-dasharray="1,5" d="M628,-149.91C628,-149.91 628,-168.79 628,-168.79"/>
<polygon fill="black" stroke="black" points="624.5,-168.79 628,-178.79 631.5,-168.79 624.5,-168.79"/>
</g>
<!-- AppRoutingModule -->
<g id="node9" class="node">
<title>AppRoutingModule</title>
<polygon fill="#8dd3c7" stroke="black" points="152.28,-84.8 149.28,-88.8 128.28,-88.8 125.28,-84.8 23.72,-84.8 23.72,-48.8 152.28,-48.8 152.28,-84.8"/>
<text text-anchor="middle" x="88" y="-62.6" font-family="Times,serif" font-size="14.00">AppRoutingModule</text>
</g>
<!-- AppRoutingModule&#45;&gt;AppModule -->
<g id="edge8" class="edge">
<title>AppRoutingModule&#45;&gt;AppModule</title>
<path fill="none" stroke="black" d="M88,-85.09C88,-107.01 88,-140.8 88,-140.8 88,-140.8 576.08,-140.8 576.08,-140.8"/>
<polygon fill="black" stroke="black" points="576.08,-144.3 586.08,-140.8 576.08,-137.3 576.08,-144.3"/>
</g>
<!-- StartGameComponent -->
<g id="node11" class="node">
<title>StartGameComponent</title>
<polygon fill="#ffffb3" stroke="black" points="1665.7,-84.8 1524.3,-84.8 1524.3,-48.8 1665.7,-48.8 1665.7,-84.8"/>
<text text-anchor="middle" x="1595" y="-62.6" font-family="Times,serif" font-size="14.00">StartGameComponent</text>
</g>
<!-- StartGameModule -->
<g id="node13" class="node">
<title>StartGameModule</title>
<polygon fill="#8dd3c7" stroke="black" points="1509.92,-149.8 1506.92,-153.8 1485.92,-153.8 1482.92,-149.8 1390.08,-149.8 1390.08,-113.8 1509.92,-113.8 1509.92,-149.8"/>
<text text-anchor="middle" x="1450" y="-127.6" font-family="Times,serif" font-size="14.00">StartGameModule</text>
</g>
<!-- StartGameComponent&#45;&gt;StartGameModule -->
<g id="edge10" class="edge">
<title>StartGameComponent&#45;&gt;StartGameModule</title>
<path fill="none" stroke="black" d="M1595,-84.91C1595,-104.14 1595,-131.8 1595,-131.8 1595,-131.8 1519.81,-131.8 1519.81,-131.8"/>
<polygon fill="black" stroke="black" points="1519.81,-128.3 1509.81,-131.8 1519.81,-135.3 1519.81,-128.3"/>
</g>
<!-- TableComponent -->
<g id="node12" class="node">
<title>TableComponent</title>
<polygon fill="#ffffb3" stroke="black" points="1506.7,-84.8 1393.3,-84.8 1393.3,-48.8 1506.7,-48.8 1506.7,-84.8"/>
<text text-anchor="middle" x="1450" y="-62.6" font-family="Times,serif" font-size="14.00">TableComponent</text>
</g>
<!-- TableComponent&#45;&gt;StartGameModule -->
<g id="edge11" class="edge">
<title>TableComponent&#45;&gt;StartGameModule</title>
<path fill="none" stroke="black" d="M1450,-84.91C1450,-84.91 1450,-103.79 1450,-103.79"/>
<polygon fill="black" stroke="black" points="1446.5,-103.79 1450,-113.79 1453.5,-103.79 1446.5,-103.79"/>
</g>
<!-- UsersService -->
<g id="node14" class="node">
<title>UsersService</title>
<ellipse fill="#fdb462" stroke="black" cx="1307" cy="-66.8" rx="61.97" ry="18"/>
<text text-anchor="middle" x="1307" y="-62.6" font-family="Times,serif" font-size="14.00">UsersService</text>
</g>
<!-- UsersService&#45;&gt;StartGameModule -->
<g id="edge12" class="edge">
<title>UsersService&#45;&gt;StartGameModule</title>
<path fill="none" stroke="black" d="M1307,-84.81C1307,-107.29 1307,-142.8 1307,-142.8 1307,-142.8 1380.18,-142.8 1380.18,-142.8"/>
<polygon fill="black" stroke="black" points="1380.18,-146.3 1390.18,-142.8 1380.18,-139.3 1380.18,-146.3"/>
</g>
</g>
</svg>
