<?xml version="1.0" encoding="UTF-8" standalone="no"?>
<!DOCTYPE svg PUBLIC "-//W3C//DTD SVG 1.1//EN"
 "http://www.w3.org/Graphics/SVG/1.1/DTD/svg11.dtd">
<!-- Generated by graphviz version 5.0.0 (20220707.1540)
 -->
<!-- Title: dependencies Pages: 1 -->
<svg width="1991pt" height="247pt"
 viewBox="0.00 0.00 1991.00 246.80" xmlns="http://www.w3.org/2000/svg" xmlns:xlink="http://www.w3.org/1999/xlink">
<g id="graph0" class="graph" transform="scale(1 1) rotate(0) translate(4 242.8)">
<title>dependencies</title>
<polygon fill="white" stroke="transparent" points="-4,4 -4,-242.8 1987,-242.8 1987,4 -4,4"/>
<text text-anchor="middle" x="991.5" y="-8.2" font-family="sans-serif" font-size="14.00">dependencies</text>
<g id="clust1" class="cluster">
<title>cluster_AppModule</title>
<polygon fill="none" stroke="black" stroke-dasharray="1,5" points="8,-32.8 8,-230.8 1514,-230.8 1514,-32.8 8,-32.8"/>
</g>
<g id="clust2" class="cluster">
<title>cluster_AppModule_declarations</title>
<polygon fill="none" stroke="black" points="168,-40.8 168,-92.8 1506,-92.8 1506,-40.8 168,-40.8"/>
</g>
<g id="clust12" class="cluster">
<title>cluster_AppModule_imports</title>
<polygon fill="none" stroke="black" points="16,-40.8 16,-92.8 160,-92.8 160,-40.8 16,-40.8"/>
</g>
<g id="clust14" class="cluster">
<title>cluster_AppModule_bootstrap</title>
<polygon fill="none" stroke="black" points="724,-170.8 724,-222.8 848,-222.8 848,-170.8 724,-170.8"/>
</g>
<g id="clust22" class="cluster">
<title>cluster_StartGameModule</title>
<polygon fill="none" stroke="black" stroke-dasharray="1,5" points="1522,-32.8 1522,-157.8 1975,-157.8 1975,-32.8 1522,-32.8"/>
</g>
<g id="clust23" class="cluster">
<title>cluster_StartGameModule_declarations</title>
<polygon fill="none" stroke="black" points="1678,-40.8 1678,-92.8 1967,-92.8 1967,-40.8 1678,-40.8"/>
</g>
<g id="clust29" class="cluster">
<title>cluster_StartGameModule_providers</title>
<polygon fill="none" stroke="black" points="1530,-40.8 1530,-92.8 1670,-92.8 1670,-40.8 1530,-40.8"/>
</g>
<!-- AppComponent -->
<g id="node1" class="node">
<title>AppComponent</title>
<polygon fill="#ffffb3" stroke="black" points="1497.94,-84.8 1392.06,-84.8 1392.06,-48.8 1497.94,-48.8 1497.94,-84.8"/>
<text text-anchor="middle" x="1445" y="-62.6" font-family="Times,serif" font-size="14.00">AppComponent</text>
</g>
<!-- AppModule -->
<g id="node10" class="node">
<title>AppModule</title>
<polygon fill="#8dd3c7" stroke="black" points="827.66,-149.8 824.66,-153.8 803.66,-153.8 800.66,-149.8 744.34,-149.8 744.34,-113.8 827.66,-113.8 827.66,-149.8"/>
<text text-anchor="middle" x="786" y="-127.6" font-family="Times,serif" font-size="14.00">AppModule</text>
</g>
<!-- AppComponent&#45;&gt;AppModule -->
<g id="edge1" class="edge">
<title>AppComponent&#45;&gt;AppModule</title>
<path fill="none" stroke="black" d="M1445,-85.08C1445,-106.12 1445,-137.8 1445,-137.8 1445,-137.8 837.72,-137.8 837.72,-137.8"/>
<polygon fill="black" stroke="black" points="837.72,-134.3 827.72,-137.8 837.72,-141.3 837.72,-134.3"/>
</g>
<!-- DialogComponent -->
<g id="node2" class="node">
<title>DialogComponent</title>
<polygon fill="#ffffb3" stroke="black" points="1374.94,-84.8 1255.06,-84.8 1255.06,-48.8 1374.94,-48.8 1374.94,-84.8"/>
<text text-anchor="middle" x="1315" y="-62.6" font-family="Times,serif" font-size="14.00">DialogComponent</text>
</g>
<!-- DialogComponent&#45;&gt;AppModule -->
<g id="edge2" class="edge">
<title>DialogComponent&#45;&gt;AppModule</title>
<path fill="none" stroke="black" d="M1315,-84.91C1315,-104.14 1315,-131.8 1315,-131.8 1315,-131.8 837.95,-131.8 837.95,-131.8"/>
<polygon fill="black" stroke="black" points="837.95,-128.3 827.95,-131.8 837.95,-135.3 837.95,-128.3"/>
</g>
<!-- DialogDataExampleDialog -->
<g id="node3" class="node">
<title>DialogDataExampleDialog</title>
<polygon fill="#ffffb3" stroke="black" points="1237.39,-84.8 1068.61,-84.8 1068.61,-48.8 1237.39,-48.8 1237.39,-84.8"/>
<text text-anchor="middle" x="1153" y="-62.6" font-family="Times,serif" font-size="14.00">DialogDataExampleDialog</text>
</g>
<!-- DialogDataExampleDialog&#45;&gt;AppModule -->
<g id="edge3" class="edge">
<title>DialogDataExampleDialog&#45;&gt;AppModule</title>
<path fill="none" stroke="black" d="M1153,-84.82C1153,-102.17 1153,-125.8 1153,-125.8 1153,-125.8 837.74,-125.8 837.74,-125.8"/>
<polygon fill="black" stroke="black" points="837.74,-122.3 827.74,-125.8 837.74,-129.3 837.74,-122.3"/>
</g>
<!-- FooterComponent -->
<g id="node4" class="node">
<title>FooterComponent</title>
<polygon fill="#ffffb3" stroke="black" points="1050.88,-84.8 933.12,-84.8 933.12,-48.8 1050.88,-48.8 1050.88,-84.8"/>
<text text-anchor="middle" x="992" y="-62.6" font-family="Times,serif" font-size="14.00">FooterComponent</text>
</g>
<!-- FooterComponent&#45;&gt;AppModule -->
<g id="edge4" class="edge">
<title>FooterComponent&#45;&gt;AppModule</title>
<path fill="none" stroke="black" d="M992,-85.04C992,-100.37 992,-119.8 992,-119.8 992,-119.8 837.69,-119.8 837.69,-119.8"/>
<polygon fill="black" stroke="black" points="837.69,-116.3 827.69,-119.8 837.69,-123.3 837.69,-116.3"/>
</g>
<!-- LoginComponent -->
<g id="node5" class="node">
<title>LoginComponent</title>
<polygon fill="#ffffb3" stroke="black" points="915.27,-84.8 800.73,-84.8 800.73,-48.8 915.27,-48.8 915.27,-84.8"/>
<text text-anchor="middle" x="858" y="-62.6" font-family="Times,serif" font-size="14.00">LoginComponent</text>
</g>
<!-- LoginComponent&#45;&gt;AppModule -->
<g id="edge5" class="edge">
<title>LoginComponent&#45;&gt;AppModule</title>
<path fill="none" stroke="black" d="M814.22,-84.91C814.22,-84.91 814.22,-103.79 814.22,-103.79"/>
<polygon fill="black" stroke="black" points="810.72,-103.79 814.22,-113.79 817.72,-103.79 810.72,-103.79"/>
</g>
<!-- MainPageComponent -->
<g id="node6" class="node">
<title>MainPageComponent</title>
<polygon fill="#ffffb3" stroke="black" points="783.1,-84.8 644.9,-84.8 644.9,-48.8 783.1,-48.8 783.1,-84.8"/>
<text text-anchor="middle" x="714" y="-62.6" font-family="Times,serif" font-size="14.00">MainPageComponent</text>
</g>
<!-- MainPageComponent&#45;&gt;AppModule -->
<g id="edge6" class="edge">
<title>MainPageComponent&#45;&gt;AppModule</title>
<path fill="none" stroke="black" d="M763.61,-84.91C763.61,-84.91 763.61,-103.79 763.61,-103.79"/>
<polygon fill="black" stroke="black" points="760.11,-103.79 763.61,-113.79 767.11,-103.79 760.11,-103.79"/>
</g>
<!-- NavigationComponent -->
<g id="node7" class="node">
<title>NavigationComponent</title>
<polygon fill="#ffffb3" stroke="black" points="626.54,-84.8 483.46,-84.8 483.46,-48.8 626.54,-48.8 626.54,-84.8"/>
<text text-anchor="middle" x="555" y="-62.6" font-family="Times,serif" font-size="14.00">NavigationComponent</text>
</g>
<!-- NavigationComponent&#45;&gt;AppModule -->
<g id="edge7" class="edge">
<title>NavigationComponent&#45;&gt;AppModule</title>
<path fill="none" stroke="black" d="M555,-84.81C555,-100.85 555,-121.8 555,-121.8 555,-121.8 734.17,-121.8 734.17,-121.8"/>
<polygon fill="black" stroke="black" points="734.17,-125.3 744.17,-121.8 734.17,-118.3 734.17,-125.3"/>
</g>
<!-- ProfileComponent -->
<g id="node8" class="node">
<title>ProfileComponent</title>
<polygon fill="#ffffb3" stroke="black" points="465.94,-84.8 346.06,-84.8 346.06,-48.8 465.94,-48.8 465.94,-84.8"/>
<text text-anchor="middle" x="406" y="-62.6" font-family="Times,serif" font-size="14.00">ProfileComponent</text>
</g>
<!-- ProfileComponent&#45;&gt;AppModule -->
<g id="edge8" class="edge">
<title>ProfileComponent&#45;&gt;AppModule</title>
<path fill="none" stroke="black" d="M406,-85.07C406,-103.36 406,-128.8 406,-128.8 406,-128.8 734.25,-128.8 734.25,-128.8"/>
<polygon fill="black" stroke="black" points="734.25,-132.3 744.25,-128.8 734.25,-125.3 734.25,-132.3"/>
</g>
<!-- PuzzleGameComponent -->
<g id="node9" class="node">
<title>PuzzleGameComponent</title>
<polygon fill="#ffffb3" stroke="black" points="328.08,-84.8 175.92,-84.8 175.92,-48.8 328.08,-48.8 328.08,-84.8"/>
<text text-anchor="middle" x="252" y="-62.6" font-family="Times,serif" font-size="14.00">PuzzleGameComponent</text>
</g>
<!-- PuzzleGameComponent&#45;&gt;AppModule -->
<g id="edge9" class="edge">
<title>PuzzleGameComponent&#45;&gt;AppModule</title>
<path fill="none" stroke="black" d="M252,-84.93C252,-105.37 252,-135.8 252,-135.8 252,-135.8 734.1,-135.8 734.1,-135.8"/>
<polygon fill="black" stroke="black" points="734.1,-139.3 744.1,-135.8 734.1,-132.3 734.1,-139.3"/>
</g>
<!-- AppComponent  -->
<g id="node12" class="node">
<title>AppComponent </title>
<polygon fill="#80b1d3" stroke="black" points="840.44,-214.8 731.56,-214.8 731.56,-178.8 840.44,-178.8 840.44,-214.8"/>
<text text-anchor="middle" x="786" y="-192.6" font-family="Times,serif" font-size="14.00">AppComponent </text>
</g>
<!-- AppModule&#45;&gt;AppComponent  -->
<g id="edge11" class="edge">
<title>AppModule&#45;&gt;AppComponent </title>
<path fill="none" stroke="black" stroke-dasharray="1,5" d="M786,-149.91C786,-149.91 786,-168.79 786,-168.79"/>
<polygon fill="black" stroke="black" points="782.5,-168.79 786,-178.79 789.5,-168.79 782.5,-168.79"/>
</g>
<!-- AppRoutingModule -->
<g id="node11" class="node">
<title>AppRoutingModule</title>
<polygon fill="#8dd3c7" stroke="black" points="152.28,-84.8 149.28,-88.8 128.28,-88.8 125.28,-84.8 23.72,-84.8 23.72,-48.8 152.28,-48.8 152.28,-84.8"/>
<text text-anchor="middle" x="88" y="-62.6" font-family="Times,serif" font-size="14.00">AppRoutingModule</text>
</g>
<!-- AppRoutingModule&#45;&gt;AppModule -->
<g id="edge10" class="edge">
<title>AppRoutingModule&#45;&gt;AppModule</title>
<path fill="none" stroke="black" d="M88,-84.81C88,-107.29 88,-142.8 88,-142.8 88,-142.8 734.17,-142.8 734.17,-142.8"/>
<polygon fill="black" stroke="black" points="734.17,-146.3 744.17,-142.8 734.17,-139.3 734.17,-146.3"/>
</g>
<!-- StartGameComponent -->
<g id="node13" class="node">
<title>StartGameComponent</title>
<polygon fill="#ffffb3" stroke="black" points="1958.7,-84.8 1817.3,-84.8 1817.3,-48.8 1958.7,-48.8 1958.7,-84.8"/>
<text text-anchor="middle" x="1888" y="-62.6" font-family="Times,serif" font-size="14.00">StartGameComponent</text>
</g>
<!-- StartGameModule -->
<g id="node15" class="node">
<title>StartGameModule</title>
<polygon fill="#8dd3c7" stroke="black" points="1802.92,-149.8 1799.92,-153.8 1778.92,-153.8 1775.92,-149.8 1683.08,-149.8 1683.08,-113.8 1802.92,-113.8 1802.92,-149.8"/>
<text text-anchor="middle" x="1743" y="-127.6" font-family="Times,serif" font-size="14.00">StartGameModule</text>
</g>
<!-- StartGameComponent&#45;&gt;StartGameModule -->
<g id="edge12" class="edge">
<title>StartGameComponent&#45;&gt;StartGameModule</title>
<path fill="none" stroke="black" d="M1888,-84.91C1888,-104.14 1888,-131.8 1888,-131.8 1888,-131.8 1812.81,-131.8 1812.81,-131.8"/>
<polygon fill="black" stroke="black" points="1812.81,-128.3 1802.81,-131.8 1812.81,-135.3 1812.81,-128.3"/>
</g>
<!-- TableComponent -->
<g id="node14" class="node">
<title>TableComponent</title>
<polygon fill="#ffffb3" stroke="black" points="1799.7,-84.8 1686.3,-84.8 1686.3,-48.8 1799.7,-48.8 1799.7,-84.8"/>
<text text-anchor="middle" x="1743" y="-62.6" font-family="Times,serif" font-size="14.00">TableComponent</text>
</g>
<!-- TableComponent&#45;&gt;StartGameModule -->
<g id="edge13" class="edge">
<title>TableComponent&#45;&gt;StartGameModule</title>
<path fill="none" stroke="black" d="M1743,-84.91C1743,-84.91 1743,-103.79 1743,-103.79"/>
<polygon fill="black" stroke="black" points="1739.5,-103.79 1743,-113.79 1746.5,-103.79 1739.5,-103.79"/>
</g>
<!-- UsersService -->
<g id="node16" class="node">
<title>UsersService</title>
<ellipse fill="#fdb462" stroke="black" cx="1600" cy="-66.8" rx="61.97" ry="18"/>
<text text-anchor="middle" x="1600" y="-62.6" font-family="Times,serif" font-size="14.00">UsersService</text>
</g>
<!-- UsersService&#45;&gt;StartGameModule -->
<g id="edge14" class="edge">
<title>UsersService&#45;&gt;StartGameModule</title>
<path fill="none" stroke="black" d="M1600,-85.05C1600,-107.82 1600,-143.8 1600,-143.8 1600,-143.8 1673.18,-143.8 1673.18,-143.8"/>
<polygon fill="black" stroke="black" points="1673.18,-147.3 1683.18,-143.8 1673.18,-140.3 1673.18,-147.3"/>
</g>
</g>
</svg>
