<?xml version="1.0" encoding="UTF-8" standalone="no"?>
<!DOCTYPE svg PUBLIC "-//W3C//DTD SVG 1.1//EN"
 "http://www.w3.org/Graphics/SVG/1.1/DTD/svg11.dtd">
<!-- Generated by graphviz version 5.0.0 (20220707.1540)
 -->
<!-- Title: dependencies Pages: 1 -->
<svg width="3465pt" height="323pt"
 viewBox="0.00 0.00 3465.00 322.80" xmlns="http://www.w3.org/2000/svg" xmlns:xlink="http://www.w3.org/1999/xlink">
<g id="graph0" class="graph" transform="scale(1 1) rotate(0) translate(4 318.8)">
<title>dependencies</title>
<polygon fill="white" stroke="transparent" points="-4,4 -4,-318.8 3461,-318.8 3461,4 -4,4"/>
<text text-anchor="middle" x="1728.5" y="-8.2" font-family="sans-serif" font-size="14.00">dependencies</text>
<g id="clust1" class="cluster">
<title>cluster_AppModule</title>
<polygon fill="none" stroke="black" stroke-dasharray="1,5" points="19,-108.8 19,-306.8 1786,-306.8 1786,-108.8 19,-108.8"/>
</g>
<g id="clust2" class="cluster">
<title>cluster_AppModule_declarations</title>
<polygon fill="none" stroke="black" points="294,-116.8 294,-168.8 1778,-168.8 1778,-116.8 294,-116.8"/>
</g>
<g id="clust15" class="cluster">
<title>cluster_AppModule_bootstrap</title>
<polygon fill="none" stroke="black" points="844,-246.8 844,-298.8 968,-298.8 968,-246.8 844,-246.8"/>
</g>
<g id="clust13" class="cluster">
<title>cluster_AppModule_imports</title>
<polygon fill="none" stroke="black" points="27,-116.8 27,-168.8 286,-168.8 286,-116.8 27,-116.8"/>
</g>
<g id="clust29" class="cluster">
<title>cluster_DeaModule</title>
<polygon fill="none" stroke="black" stroke-dasharray="1,5" points="1794,-32.8 1794,-168.8 2228,-168.8 2228,-32.8 1794,-32.8"/>
</g>
<g id="clust30" class="cluster">
<title>cluster_DeaModule_declarations</title>
<polygon fill="none" stroke="black" points="1938,-40.8 1938,-92.8 2220,-92.8 2220,-40.8 1938,-40.8"/>
</g>
<g id="clust36" class="cluster">
<title>cluster_DeaModule_providers</title>
<polygon fill="none" stroke="black" points="1802,-40.8 1802,-92.8 1930,-92.8 1930,-40.8 1802,-40.8"/>
</g>
<g id="clust37" class="cluster">
<title>cluster_GrammarModule</title>
<polygon fill="none" stroke="black" stroke-dasharray="1,5" points="2236,-32.8 2236,-168.8 2988,-168.8 2988,-32.8 2236,-32.8"/>
</g>
<g id="clust38" class="cluster">
<title>cluster_GrammarModule_declarations</title>
<polygon fill="none" stroke="black" points="2642,-40.8 2642,-92.8 2980,-92.8 2980,-40.8 2642,-40.8"/>
</g>
<g id="clust44" class="cluster">
<title>cluster_GrammarModule_providers</title>
<polygon fill="none" stroke="black" points="2244,-40.8 2244,-92.8 2634,-92.8 2634,-40.8 2244,-40.8"/>
</g>
<g id="clust45" class="cluster">
<title>cluster_PuzzleModule</title>
<polygon fill="none" stroke="black" stroke-dasharray="1,5" points="8,-32.8 8,-100.8 158,-100.8 158,-32.8 8,-32.8"/>
</g>
<g id="clust46" class="cluster">
<title>cluster_PuzzleModule_declarations</title>
<polygon fill="none" stroke="black" points="16,-40.8 16,-92.8 150,-92.8 150,-40.8 16,-40.8"/>
</g>
<g id="clust52" class="cluster">
<title>cluster_StartGameModule</title>
<polygon fill="none" stroke="black" stroke-dasharray="1,5" points="2996,-32.8 2996,-168.8 3449,-168.8 3449,-32.8 2996,-32.8"/>
</g>
<g id="clust53" class="cluster">
<title>cluster_StartGameModule_declarations</title>
<polygon fill="none" stroke="black" points="3152,-40.8 3152,-92.8 3441,-92.8 3441,-40.8 3152,-40.8"/>
</g>
<g id="clust59" class="cluster">
<title>cluster_StartGameModule_providers</title>
<polygon fill="none" stroke="black" points="3004,-40.8 3004,-92.8 3144,-92.8 3144,-40.8 3004,-40.8"/>
</g>
<!-- AppComponent -->
<g id="node1" class="node">
<title>AppComponent</title>
<polygon fill="#ffffb3" stroke="black" points="1769.94,-160.8 1664.06,-160.8 1664.06,-124.8 1769.94,-124.8 1769.94,-160.8"/>
<text text-anchor="middle" x="1717" y="-138.6" font-family="Times,serif" font-size="14.00">AppComponent</text>
</g>
<!-- AppModule -->
<g id="node11" class="node">
<title>AppModule</title>
<polygon fill="#8dd3c7" stroke="black" points="947.66,-225.8 944.66,-229.8 923.66,-229.8 920.66,-225.8 864.34,-225.8 864.34,-189.8 947.66,-189.8 947.66,-225.8"/>
<text text-anchor="middle" x="906" y="-203.6" font-family="Times,serif" font-size="14.00">AppModule</text>
</g>
<!-- AppComponent&#45;&gt;AppModule -->
<g id="edge1" class="edge">
<title>AppComponent&#45;&gt;AppModule</title>
<path fill="none" stroke="black" d="M1717,-161.05C1717,-183.82 1717,-219.8 1717,-219.8 1717,-219.8 957.9,-219.8 957.9,-219.8"/>
<polygon fill="black" stroke="black" points="957.9,-216.3 947.9,-219.8 957.9,-223.3 957.9,-216.3"/>
</g>
<!-- DialogComponent -->
<g id="node2" class="node">
<title>DialogComponent</title>
<polygon fill="#ffffb3" stroke="black" points="1646.94,-160.8 1527.06,-160.8 1527.06,-124.8 1646.94,-124.8 1646.94,-160.8"/>
<text text-anchor="middle" x="1587" y="-138.6" font-family="Times,serif" font-size="14.00">DialogComponent</text>
</g>
<!-- DialogComponent&#45;&gt;AppModule -->
<g id="edge2" class="edge">
<title>DialogComponent&#45;&gt;AppModule</title>
<path fill="none" stroke="black" d="M1587,-161.08C1587,-182.12 1587,-213.8 1587,-213.8 1587,-213.8 957.83,-213.8 957.83,-213.8"/>
<polygon fill="black" stroke="black" points="957.83,-210.3 947.83,-213.8 957.83,-217.3 957.83,-210.3"/>
</g>
<!-- DialogDataExampleDialog -->
<g id="node3" class="node">
<title>DialogDataExampleDialog</title>
<polygon fill="#ffffb3" stroke="black" points="1509.39,-160.8 1340.61,-160.8 1340.61,-124.8 1509.39,-124.8 1509.39,-160.8"/>
<text text-anchor="middle" x="1425" y="-138.6" font-family="Times,serif" font-size="14.00">DialogDataExampleDialog</text>
</g>
<!-- DialogDataExampleDialog&#45;&gt;AppModule -->
<g id="edge3" class="edge">
<title>DialogDataExampleDialog&#45;&gt;AppModule</title>
<path fill="none" stroke="black" d="M1425,-160.91C1425,-180.14 1425,-207.8 1425,-207.8 1425,-207.8 958.03,-207.8 958.03,-207.8"/>
<polygon fill="black" stroke="black" points="958.03,-204.3 948.03,-207.8 958.03,-211.3 958.03,-204.3"/>
</g>
<!-- FooterComponent -->
<g id="node4" class="node">
<title>FooterComponent</title>
<polygon fill="#ffffb3" stroke="black" points="1322.88,-160.8 1205.12,-160.8 1205.12,-124.8 1322.88,-124.8 1322.88,-160.8"/>
<text text-anchor="middle" x="1264" y="-138.6" font-family="Times,serif" font-size="14.00">FooterComponent</text>
</g>
<!-- FooterComponent&#45;&gt;AppModule -->
<g id="edge4" class="edge">
<title>FooterComponent&#45;&gt;AppModule</title>
<path fill="none" stroke="black" d="M1264,-160.82C1264,-178.17 1264,-201.8 1264,-201.8 1264,-201.8 957.77,-201.8 957.77,-201.8"/>
<polygon fill="black" stroke="black" points="957.77,-198.3 947.77,-201.8 957.77,-205.3 957.77,-198.3"/>
</g>
<!-- LoginComponent -->
<g id="node5" class="node">
<title>LoginComponent</title>
<polygon fill="#ffffb3" stroke="black" points="1187.27,-160.8 1072.73,-160.8 1072.73,-124.8 1187.27,-124.8 1187.27,-160.8"/>
<text text-anchor="middle" x="1130" y="-138.6" font-family="Times,serif" font-size="14.00">LoginComponent</text>
</g>
<!-- LoginComponent&#45;&gt;AppModule -->
<g id="edge5" class="edge">
<title>LoginComponent&#45;&gt;AppModule</title>
<path fill="none" stroke="black" d="M1130,-161.04C1130,-176.37 1130,-195.8 1130,-195.8 1130,-195.8 957.87,-195.8 957.87,-195.8"/>
<polygon fill="black" stroke="black" points="957.87,-192.3 947.87,-195.8 957.87,-199.3 957.87,-192.3"/>
</g>
<!-- MainPageComponent -->
<g id="node6" class="node">
<title>MainPageComponent</title>
<polygon fill="#ffffb3" stroke="black" points="1055.1,-160.8 916.9,-160.8 916.9,-124.8 1055.1,-124.8 1055.1,-160.8"/>
<text text-anchor="middle" x="986" y="-138.6" font-family="Times,serif" font-size="14.00">MainPageComponent</text>
</g>
<!-- MainPageComponent&#45;&gt;AppModule -->
<g id="edge6" class="edge">
<title>MainPageComponent&#45;&gt;AppModule</title>
<path fill="none" stroke="black" d="M932.39,-160.91C932.39,-160.91 932.39,-179.79 932.39,-179.79"/>
<polygon fill="black" stroke="black" points="928.89,-179.79 932.39,-189.79 935.89,-179.79 928.89,-179.79"/>
</g>
<!-- NavigationComponent -->
<g id="node7" class="node">
<title>NavigationComponent</title>
<polygon fill="#ffffb3" stroke="black" points="898.54,-160.8 755.46,-160.8 755.46,-124.8 898.54,-124.8 898.54,-160.8"/>
<text text-anchor="middle" x="827" y="-138.6" font-family="Times,serif" font-size="14.00">NavigationComponent</text>
</g>
<!-- NavigationComponent&#45;&gt;AppModule -->
<g id="edge7" class="edge">
<title>NavigationComponent&#45;&gt;AppModule</title>
<path fill="none" stroke="black" d="M881.47,-160.91C881.47,-160.91 881.47,-179.79 881.47,-179.79"/>
<polygon fill="black" stroke="black" points="877.97,-179.79 881.47,-189.79 884.97,-179.79 877.97,-179.79"/>
</g>
<!-- ProfileComponent -->
<g id="node8" class="node">
<title>ProfileComponent</title>
<polygon fill="#ffffb3" stroke="black" points="737.94,-160.8 618.06,-160.8 618.06,-124.8 737.94,-124.8 737.94,-160.8"/>
<text text-anchor="middle" x="678" y="-138.6" font-family="Times,serif" font-size="14.00">ProfileComponent</text>
</g>
<!-- ProfileComponent&#45;&gt;AppModule -->
<g id="edge8" class="edge">
<title>ProfileComponent&#45;&gt;AppModule</title>
<path fill="none" stroke="black" d="M678,-161.04C678,-176.37 678,-195.8 678,-195.8 678,-195.8 854.18,-195.8 854.18,-195.8"/>
<polygon fill="black" stroke="black" points="854.18,-199.3 864.18,-195.8 854.18,-192.3 854.18,-199.3"/>
</g>
<!-- PuzzleGameComponent -->
<g id="node9" class="node">
<title>PuzzleGameComponent</title>
<polygon fill="#ffffb3" stroke="black" points="600.08,-160.8 447.92,-160.8 447.92,-124.8 600.08,-124.8 600.08,-160.8"/>
<text text-anchor="middle" x="524" y="-138.6" font-family="Times,serif" font-size="14.00">PuzzleGameComponent</text>
</g>
<!-- PuzzleGameComponent&#45;&gt;AppModule -->
<g id="edge9" class="edge">
<title>PuzzleGameComponent&#45;&gt;AppModule</title>
<path fill="none" stroke="black" d="M524,-160.82C524,-178.17 524,-201.8 524,-201.8 524,-201.8 854.03,-201.8 854.03,-201.8"/>
<polygon fill="black" stroke="black" points="854.03,-205.3 864.03,-201.8 854.03,-198.3 854.03,-205.3"/>
</g>
<!-- RegisterComponent -->
<g id="node10" class="node">
<title>RegisterComponent</title>
<polygon fill="#ffffb3" stroke="black" points="429.99,-160.8 302.01,-160.8 302.01,-124.8 429.99,-124.8 429.99,-160.8"/>
<text text-anchor="middle" x="366" y="-138.6" font-family="Times,serif" font-size="14.00">RegisterComponent</text>
</g>
<!-- RegisterComponent&#45;&gt;AppModule -->
<g id="edge10" class="edge">
<title>RegisterComponent&#45;&gt;AppModule</title>
<path fill="none" stroke="black" d="M366,-160.91C366,-180.14 366,-207.8 366,-207.8 366,-207.8 854.08,-207.8 854.08,-207.8"/>
<polygon fill="black" stroke="black" points="854.08,-211.3 864.08,-207.8 854.08,-204.3 854.08,-211.3"/>
</g>
<!-- AppComponent  -->
<g id="node14" class="node">
<title>AppComponent </title>
<polygon fill="#80b1d3" stroke="black" points="960.44,-290.8 851.56,-290.8 851.56,-254.8 960.44,-254.8 960.44,-290.8"/>
<text text-anchor="middle" x="906" y="-268.6" font-family="Times,serif" font-size="14.00">AppComponent </text>
</g>
<!-- AppModule&#45;&gt;AppComponent  -->
<g id="edge13" class="edge">
<title>AppModule&#45;&gt;AppComponent </title>
<path fill="none" stroke="black" stroke-dasharray="1,5" d="M906,-225.91C906,-225.91 906,-244.79 906,-244.79"/>
<polygon fill="black" stroke="black" points="902.5,-244.79 906,-254.79 909.5,-244.79 902.5,-244.79"/>
</g>
<!-- AppRoutingModule -->
<g id="node12" class="node">
<title>AppRoutingModule</title>
<polygon fill="#8dd3c7" stroke="black" points="278.28,-160.8 275.28,-164.8 254.28,-164.8 251.28,-160.8 149.72,-160.8 149.72,-124.8 278.28,-124.8 278.28,-160.8"/>
<text text-anchor="middle" x="214" y="-138.6" font-family="Times,serif" font-size="14.00">AppRoutingModule</text>
</g>
<!-- AppRoutingModule&#45;&gt;AppModule -->
<g id="edge11" class="edge">
<title>AppRoutingModule&#45;&gt;AppModule</title>
<path fill="none" stroke="black" d="M214,-161.08C214,-182.12 214,-213.8 214,-213.8 214,-213.8 854.27,-213.8 854.27,-213.8"/>
<polygon fill="black" stroke="black" points="854.27,-217.3 864.27,-213.8 854.27,-210.3 854.27,-217.3"/>
</g>
<!-- PuzzleModule -->
<g id="node13" class="node">
<title>PuzzleModule</title>
<polygon fill="#8dd3c7" stroke="black" points="131.37,-160.8 128.37,-164.8 107.37,-164.8 104.37,-160.8 34.63,-160.8 34.63,-124.8 131.37,-124.8 131.37,-160.8"/>
<text text-anchor="middle" x="83" y="-138.6" font-family="Times,serif" font-size="14.00">PuzzleModule</text>
</g>
<!-- PuzzleModule&#45;&gt;AppModule -->
<g id="edge12" class="edge">
<title>PuzzleModule&#45;&gt;AppModule</title>
<path fill="none" stroke="black" d="M83,-161.05C83,-183.82 83,-219.8 83,-219.8 83,-219.8 854.06,-219.8 854.06,-219.8"/>
<polygon fill="black" stroke="black" points="854.06,-223.3 864.06,-219.8 854.06,-216.3 854.06,-223.3"/>
</g>
<!-- CytoGraphComponent -->
<g id="node15" class="node">
<title>CytoGraphComponent</title>
<polygon fill="#ffffb3" stroke="black" points="2211.55,-84.8 2068.45,-84.8 2068.45,-48.8 2211.55,-48.8 2211.55,-84.8"/>
<text text-anchor="middle" x="2140" y="-62.6" font-family="Times,serif" font-size="14.00">CytoGraphComponent</text>
</g>
<!-- DeaModule -->
<g id="node17" class="node">
<title>DeaModule</title>
<polygon fill="#8dd3c7" stroke="black" points="2039.09,-160.8 2036.09,-164.8 2015.09,-164.8 2012.09,-160.8 1956.91,-160.8 1956.91,-124.8 2039.09,-124.8 2039.09,-160.8"/>
<text text-anchor="middle" x="1998" y="-138.6" font-family="Times,serif" font-size="14.00">DeaModule</text>
</g>
<!-- CytoGraphComponent&#45;&gt;DeaModule -->
<g id="edge14" class="edge">
<title>CytoGraphComponent&#45;&gt;DeaModule</title>
<path fill="none" stroke="black" d="M2140,-85C2140,-109.16 2140,-148.8 2140,-148.8 2140,-148.8 2049.07,-148.8 2049.07,-148.8"/>
<polygon fill="black" stroke="black" points="2049.07,-145.3 2039.07,-148.8 2049.07,-152.3 2049.07,-145.3"/>
</g>
<!-- DeaComponent -->
<g id="node16" class="node">
<title>DeaComponent</title>
<polygon fill="#ffffb3" stroke="black" points="2049.87,-84.8 1946.13,-84.8 1946.13,-48.8 2049.87,-48.8 2049.87,-84.8"/>
<text text-anchor="middle" x="1998" y="-62.6" font-family="Times,serif" font-size="14.00">DeaComponent</text>
</g>
<!-- DeaComponent&#45;&gt;DeaModule -->
<g id="edge15" class="edge">
<title>DeaComponent&#45;&gt;DeaModule</title>
<path fill="none" stroke="black" d="M1998,-84.81C1998,-84.81 1998,-114.65 1998,-114.65"/>
<polygon fill="black" stroke="black" points="1994.5,-114.65 1998,-124.65 2001.5,-114.65 1994.5,-114.65"/>
</g>
<!-- DeaService -->
<g id="node18" class="node">
<title>DeaService</title>
<ellipse fill="#fdb462" stroke="black" cx="1866" cy="-66.8" rx="55.58" ry="18"/>
<text text-anchor="middle" x="1866" y="-62.6" font-family="Times,serif" font-size="14.00">DeaService</text>
</g>
<!-- DeaService&#45;&gt;DeaModule -->
<g id="edge16" class="edge">
<title>DeaService&#45;&gt;DeaModule</title>
<path fill="none" stroke="black" d="M1866,-84.81C1866,-107.29 1866,-142.8 1866,-142.8 1866,-142.8 1946.6,-142.8 1946.6,-142.8"/>
<polygon fill="black" stroke="black" points="1946.6,-146.3 1956.6,-142.8 1946.6,-139.3 1946.6,-146.3"/>
</g>
<!-- GrammarComponent -->
<g id="node19" class="node">
<title>GrammarComponent</title>
<polygon fill="#ffffb3" stroke="black" points="2972.47,-84.8 2837.53,-84.8 2837.53,-48.8 2972.47,-48.8 2972.47,-84.8"/>
<text text-anchor="middle" x="2905" y="-62.6" font-family="Times,serif" font-size="14.00">GrammarComponent</text>
</g>
<!-- GrammarModule -->
<g id="node21" class="node">
<title>GrammarModule</title>
<polygon fill="#8dd3c7" stroke="black" points="2686.69,-160.8 2683.69,-164.8 2662.69,-164.8 2659.69,-160.8 2573.31,-160.8 2573.31,-124.8 2686.69,-124.8 2686.69,-160.8"/>
<text text-anchor="middle" x="2630" y="-138.6" font-family="Times,serif" font-size="14.00">GrammarModule</text>
</g>
<!-- GrammarComponent&#45;&gt;GrammarModule -->
<g id="edge17" class="edge">
<title>GrammarComponent&#45;&gt;GrammarModule</title>
<path fill="none" stroke="black" d="M2905,-84.83C2905,-105.57 2905,-136.8 2905,-136.8 2905,-136.8 2696.65,-136.8 2696.65,-136.8"/>
<polygon fill="black" stroke="black" points="2696.65,-133.3 2686.65,-136.8 2696.65,-140.3 2696.65,-133.3"/>
</g>
<!-- GrammarGraphComponent -->
<g id="node20" class="node">
<title>GrammarGraphComponent</title>
<polygon fill="#ffffb3" stroke="black" points="2819.96,-84.8 2650.04,-84.8 2650.04,-48.8 2819.96,-48.8 2819.96,-84.8"/>
<text text-anchor="middle" x="2735" y="-62.6" font-family="Times,serif" font-size="14.00">GrammarGraphComponent</text>
</g>
<!-- GrammarGraphComponent&#45;&gt;GrammarModule -->
<g id="edge18" class="edge">
<title>GrammarGraphComponent&#45;&gt;GrammarModule</title>
<path fill="none" stroke="black" d="M2668.31,-84.81C2668.31,-84.81 2668.31,-114.65 2668.31,-114.65"/>
<polygon fill="black" stroke="black" points="2664.81,-114.65 2668.31,-124.65 2671.81,-114.65 2664.81,-114.65"/>
</g>
<!-- GrammarGraphService -->
<g id="node22" class="node">
<title>GrammarGraphService</title>
<ellipse fill="#fdb462" stroke="black" cx="2525" cy="-66.8" rx="101.25" ry="18"/>
<text text-anchor="middle" x="2525" y="-62.6" font-family="Times,serif" font-size="14.00">GrammarGraphService</text>
</g>
<!-- GrammarGraphService&#45;&gt;GrammarModule -->
<g id="edge19" class="edge">
<title>GrammarGraphService&#45;&gt;GrammarModule</title>
<path fill="none" stroke="black" d="M2599.77,-79.01C2599.77,-79.01 2599.77,-114.66 2599.77,-114.66"/>
<polygon fill="black" stroke="black" points="2596.27,-114.66 2599.77,-124.66 2603.27,-114.66 2596.27,-114.66"/>
</g>
<!-- GrammarService -->
<g id="node23" class="node">
<title>GrammarService</title>
<ellipse fill="#fdb462" stroke="black" cx="2329" cy="-66.8" rx="76.99" ry="18"/>
<text text-anchor="middle" x="2329" y="-62.6" font-family="Times,serif" font-size="14.00">GrammarService</text>
</g>
<!-- GrammarService&#45;&gt;GrammarModule -->
<g id="edge20" class="edge">
<title>GrammarService&#45;&gt;GrammarModule</title>
<path fill="none" stroke="black" d="M2329,-84.83C2329,-105.57 2329,-136.8 2329,-136.8 2329,-136.8 2563.38,-136.8 2563.38,-136.8"/>
<polygon fill="black" stroke="black" points="2563.38,-140.3 2573.38,-136.8 2563.38,-133.3 2563.38,-140.3"/>
</g>
<!-- PuzzleComponent -->
<g id="node24" class="node">
<title>PuzzleComponent</title>
<polygon fill="#ffffb3" stroke="black" points="142.15,-84.8 23.85,-84.8 23.85,-48.8 142.15,-48.8 142.15,-84.8"/>
<text text-anchor="middle" x="83" y="-62.6" font-family="Times,serif" font-size="14.00">PuzzleComponent</text>
</g>
<!-- PuzzleComponent&#45;&gt;PuzzleModule -->
<g id="edge21" class="edge">
<title>PuzzleComponent&#45;&gt;PuzzleModule</title>
<path fill="none" stroke="black" d="M83,-84.81C83,-84.81 83,-114.65 83,-114.65"/>
<polygon fill="black" stroke="black" points="79.5,-114.65 83,-124.65 86.5,-114.65 79.5,-114.65"/>
</g>
<!-- StartGameComponent -->
<g id="node25" class="node">
<title>StartGameComponent</title>
<polygon fill="#ffffb3" stroke="black" points="3432.7,-84.8 3291.3,-84.8 3291.3,-48.8 3432.7,-48.8 3432.7,-84.8"/>
<text text-anchor="middle" x="3362" y="-62.6" font-family="Times,serif" font-size="14.00">StartGameComponent</text>
</g>
<!-- StartGameModule -->
<g id="node27" class="node">
<title>StartGameModule</title>
<polygon fill="#8dd3c7" stroke="black" points="3276.92,-160.8 3273.92,-164.8 3252.92,-164.8 3249.92,-160.8 3157.08,-160.8 3157.08,-124.8 3276.92,-124.8 3276.92,-160.8"/>
<text text-anchor="middle" x="3217" y="-138.6" font-family="Times,serif" font-size="14.00">StartGameModule</text>
</g>
<!-- StartGameComponent&#45;&gt;StartGameModule -->
<g id="edge22" class="edge">
<title>StartGameComponent&#45;&gt;StartGameModule</title>
<path fill="none" stroke="black" d="M3362,-84.81C3362,-107.29 3362,-142.8 3362,-142.8 3362,-142.8 3286.81,-142.8 3286.81,-142.8"/>
<polygon fill="black" stroke="black" points="3286.81,-139.3 3276.81,-142.8 3286.81,-146.3 3286.81,-139.3"/>
</g>
<!-- TableComponent -->
<g id="node26" class="node">
<title>TableComponent</title>
<polygon fill="#ffffb3" stroke="black" points="3273.7,-84.8 3160.3,-84.8 3160.3,-48.8 3273.7,-48.8 3273.7,-84.8"/>
<text text-anchor="middle" x="3217" y="-62.6" font-family="Times,serif" font-size="14.00">TableComponent</text>
</g>
<!-- TableComponent&#45;&gt;StartGameModule -->
<g id="edge23" class="edge">
<title>TableComponent&#45;&gt;StartGameModule</title>
<path fill="none" stroke="black" d="M3217,-84.81C3217,-84.81 3217,-114.65 3217,-114.65"/>
<polygon fill="black" stroke="black" points="3213.5,-114.65 3217,-124.65 3220.5,-114.65 3213.5,-114.65"/>
</g>
<!-- UsersService -->
<g id="node28" class="node">
<title>UsersService</title>
<ellipse fill="#fdb462" stroke="black" cx="3074" cy="-66.8" rx="61.97" ry="18"/>
<text text-anchor="middle" x="3074" y="-62.6" font-family="Times,serif" font-size="14.00">UsersService</text>
</g>
<!-- UsersService&#45;&gt;StartGameModule -->
<g id="edge24" class="edge">
<title>UsersService&#45;&gt;StartGameModule</title>
<path fill="none" stroke="black" d="M3074,-85C3074,-109.16 3074,-148.8 3074,-148.8 3074,-148.8 3147.18,-148.8 3147.18,-148.8"/>
<polygon fill="black" stroke="black" points="3147.18,-152.3 3157.18,-148.8 3147.18,-145.3 3147.18,-152.3"/>
</g>
</g>
</svg>
