<?xml version="1.0" encoding="UTF-8" standalone="no"?>
<!DOCTYPE svg PUBLIC "-//W3C//DTD SVG 1.1//EN"
 "http://www.w3.org/Graphics/SVG/1.1/DTD/svg11.dtd">
<!-- Generated by graphviz version 5.0.0 (20220707.1540)
 -->
<!-- Title: dependencies Pages: 1 -->
<svg width="776pt" height="174pt"
 viewBox="0.00 0.00 776.00 173.80" xmlns="http://www.w3.org/2000/svg" xmlns:xlink="http://www.w3.org/1999/xlink">
<g id="graph0" class="graph" transform="scale(1 1) rotate(0) translate(4 169.8)">
<title>dependencies</title>
<polygon fill="white" stroke="transparent" points="-4,4 -4,-169.8 772,-169.8 772,4 -4,4"/>
<text text-anchor="middle" x="384" y="-8.2" font-family="sans-serif" font-size="14.00">dependencies</text>
<g id="clust1" class="cluster">
<title>cluster_GrammarModule</title>
<polygon fill="none" stroke="black" stroke-dasharray="1,5" points="8,-32.8 8,-157.8 760,-157.8 760,-32.8 8,-32.8"/>
</g>
<g id="clust2" class="cluster">
<title>cluster_GrammarModule_declarations</title>
<polygon fill="none" stroke="black" points="414,-40.8 414,-92.8 752,-92.8 752,-40.8 414,-40.8"/>
</g>
<g id="clust8" class="cluster">
<title>cluster_GrammarModule_providers</title>
<polygon fill="none" stroke="black" points="16,-40.8 16,-92.8 406,-92.8 406,-40.8 16,-40.8"/>
</g>
<!-- GrammarComponent -->
<g id="node1" class="node">
<title>GrammarComponent</title>
<polygon fill="#ffffb3" stroke="black" points="744.47,-84.8 609.53,-84.8 609.53,-48.8 744.47,-48.8 744.47,-84.8"/>
<text text-anchor="middle" x="677" y="-62.6" font-family="Times,serif" font-size="14.00">GrammarComponent</text>
</g>
<!-- GrammarModule -->
<g id="node3" class="node">
<title>GrammarModule</title>
<polygon fill="#8dd3c7" stroke="black" points="458.69,-149.8 455.69,-153.8 434.69,-153.8 431.69,-149.8 345.31,-149.8 345.31,-113.8 458.69,-113.8 458.69,-149.8"/>
<text text-anchor="middle" x="402" y="-127.6" font-family="Times,serif" font-size="14.00">GrammarModule</text>
</g>
<!-- GrammarComponent&#45;&gt;GrammarModule -->
<g id="edge1" class="edge">
<title>GrammarComponent&#45;&gt;GrammarModule</title>
<path fill="none" stroke="black" d="M677,-84.91C677,-104.14 677,-131.8 677,-131.8 677,-131.8 468.65,-131.8 468.65,-131.8"/>
<polygon fill="black" stroke="black" points="468.65,-128.3 458.65,-131.8 468.65,-135.3 468.65,-128.3"/>
</g>
<!-- GrammarGraphComponent -->
<g id="node2" class="node">
<title>GrammarGraphComponent</title>
<polygon fill="#ffffb3" stroke="black" points="591.96,-84.8 422.04,-84.8 422.04,-48.8 591.96,-48.8 591.96,-84.8"/>
<text text-anchor="middle" x="507" y="-62.6" font-family="Times,serif" font-size="14.00">GrammarGraphComponent</text>
</g>
<!-- GrammarGraphComponent&#45;&gt;GrammarModule -->
<g id="edge2" class="edge">
<title>GrammarGraphComponent&#45;&gt;GrammarModule</title>
<path fill="none" stroke="black" d="M440.31,-84.91C440.31,-84.91 440.31,-103.79 440.31,-103.79"/>
<polygon fill="black" stroke="black" points="436.81,-103.79 440.31,-113.79 443.81,-103.79 436.81,-103.79"/>
</g>
<!-- GrammarGraphService -->
<g id="node4" class="node">
<title>GrammarGraphService</title>
<ellipse fill="#fdb462" stroke="black" cx="297" cy="-66.8" rx="101.25" ry="18"/>
<text text-anchor="middle" x="297" y="-62.6" font-family="Times,serif" font-size="14.00">GrammarGraphService</text>
</g>
<!-- GrammarGraphService&#45;&gt;GrammarModule -->
<g id="edge3" class="edge">
<title>GrammarGraphService&#45;&gt;GrammarModule</title>
<path fill="none" stroke="black" d="M371.77,-79.03C371.77,-79.03 371.77,-103.48 371.77,-103.48"/>
<polygon fill="black" stroke="black" points="368.27,-103.48 371.77,-113.48 375.27,-103.48 368.27,-103.48"/>
</g>
<!-- GrammarService -->
<g id="node5" class="node">
<title>GrammarService</title>
<ellipse fill="#fdb462" stroke="black" cx="101" cy="-66.8" rx="76.99" ry="18"/>
<text text-anchor="middle" x="101" y="-62.6" font-family="Times,serif" font-size="14.00">GrammarService</text>
</g>
<!-- GrammarService&#45;&gt;GrammarModule -->
<g id="edge4" class="edge">
<title>GrammarService&#45;&gt;GrammarModule</title>
<path fill="none" stroke="black" d="M101,-84.91C101,-104.14 101,-131.8 101,-131.8 101,-131.8 335.38,-131.8 335.38,-131.8"/>
<polygon fill="black" stroke="black" points="335.38,-135.3 345.38,-131.8 335.38,-128.3 335.38,-135.3"/>
</g>
</g>
</svg>
