<?xml version="1.0" encoding="UTF-8" standalone="no"?>
<!DOCTYPE svg PUBLIC "-//W3C//DTD SVG 1.1//EN"
 "http://www.w3.org/Graphics/SVG/1.1/DTD/svg11.dtd">
<!-- Generated by graphviz version 5.0.0 (20220707.1540)
 -->
<!-- Title: dependencies Pages: 1 -->
<svg width="776pt" height="174pt"
 viewBox="0.00 0.00 776.00 173.80" xmlns="http://www.w3.org/2000/svg" xmlns:xlink="http://www.w3.org/1999/xlink">
<g id="graph0" class="graph" transform="scale(1 1) rotate(0) translate(4 169.8)">
<title>dependencies</title>
<polygon fill="white" stroke="transparent" points="-4,4 -4,-169.8 772,-169.8 772,4 -4,4"/>
<text text-anchor="middle" x="384" y="-8.2" font-family="sans-serif" font-size="14.00">dependencies</text>
<g id="clust1" class="cluster">
<title>cluster_GrammarModule</title>
<polygon fill="none" stroke="black" stroke-dasharray="1,5" points="8,-32.8 8,-157.8 760,-157.8 760,-32.8 8,-32.8"/>
</g>
<g id="clust8" class="cluster">
<title>cluster_GrammarModule_providers</title>
<polygon fill="none" stroke="black" points="362,-40.8 362,-92.8 752,-92.8 752,-40.8 362,-40.8"/>
</g>
<g id="clust2" class="cluster">
<title>cluster_GrammarModule_declarations</title>
<polygon fill="none" stroke="black" points="16,-40.8 16,-92.8 354,-92.8 354,-40.8 16,-40.8"/>
</g>
<!-- GrammarComponent -->
<g id="node1" class="node">
<title>GrammarComponent</title>
<polygon fill="#ffffb3" stroke="black" points="346.47,-84.8 211.53,-84.8 211.53,-48.8 346.47,-48.8 346.47,-84.8"/>
<text text-anchor="middle" x="279" y="-62.6" font-family="Times,serif" font-size="14.00">GrammarComponent</text>
</g>
<!-- GrammarModule -->
<g id="node3" class="node">
<title>GrammarModule</title>
<polygon fill="#8dd3c7" stroke="black" points="419.69,-149.8 416.69,-153.8 395.69,-153.8 392.69,-149.8 306.31,-149.8 306.31,-113.8 419.69,-113.8 419.69,-149.8"/>
<text text-anchor="middle" x="363" y="-127.6" font-family="Times,serif" font-size="14.00">GrammarModule</text>
</g>
<!-- GrammarComponent&#45;&gt;GrammarModule -->
<g id="edge1" class="edge">
<title>GrammarComponent&#45;&gt;GrammarModule</title>
<path fill="none" stroke="black" d="M326.44,-84.91C326.44,-84.91 326.44,-103.79 326.44,-103.79"/>
<polygon fill="black" stroke="black" points="322.94,-103.79 326.44,-113.79 329.94,-103.79 322.94,-103.79"/>
</g>
<!-- GrammarGraphComponent -->
<g id="node2" class="node">
<title>GrammarGraphComponent</title>
<polygon fill="#ffffb3" stroke="black" points="193.96,-84.8 24.04,-84.8 24.04,-48.8 193.96,-48.8 193.96,-84.8"/>
<text text-anchor="middle" x="109" y="-62.6" font-family="Times,serif" font-size="14.00">GrammarGraphComponent</text>
</g>
<!-- GrammarGraphComponent&#45;&gt;GrammarModule -->
<g id="edge2" class="edge">
<title>GrammarGraphComponent&#45;&gt;GrammarModule</title>
<path fill="none" stroke="black" d="M109,-84.91C109,-104.14 109,-131.8 109,-131.8 109,-131.8 296.31,-131.8 296.31,-131.8"/>
<polygon fill="black" stroke="black" points="296.31,-135.3 306.31,-131.8 296.31,-128.3 296.31,-135.3"/>
</g>
<!-- GrammarGraphService -->
<g id="node4" class="node">
<title>GrammarGraphService</title>
<ellipse fill="#fdb462" stroke="black" cx="643" cy="-66.8" rx="101.25" ry="18"/>
<text text-anchor="middle" x="643" y="-62.6" font-family="Times,serif" font-size="14.00">GrammarGraphService</text>
</g>
<!-- GrammarGraphService&#45;&gt;GrammarModule -->
<g id="edge3" class="edge">
<title>GrammarGraphService&#45;&gt;GrammarModule</title>
<path fill="none" stroke="black" d="M643,-84.91C643,-104.14 643,-131.8 643,-131.8 643,-131.8 429.66,-131.8 429.66,-131.8"/>
<polygon fill="black" stroke="black" points="429.66,-128.3 419.66,-131.8 429.66,-135.3 429.66,-128.3"/>
</g>
<!-- GrammarService -->
<g id="node5" class="node">
<title>GrammarService</title>
<ellipse fill="#fdb462" stroke="black" cx="447" cy="-66.8" rx="76.99" ry="18"/>
<text text-anchor="middle" x="447" y="-62.6" font-family="Times,serif" font-size="14.00">GrammarService</text>
</g>
<!-- GrammarService&#45;&gt;GrammarModule -->
<g id="edge4" class="edge">
<title>GrammarService&#45;&gt;GrammarModule</title>
<path fill="none" stroke="black" d="M394.8,-80.27C394.8,-80.27 394.8,-103.66 394.8,-103.66"/>
<polygon fill="black" stroke="black" points="391.3,-103.66 394.8,-113.66 398.3,-103.66 391.3,-103.66"/>
</g>
</g>
</svg>
